<svg id="Layer_1" enable-background="new 0 0 512 512" height="512" viewBox="0 0 512 512" width="512" xmlns="http://www.w3.org/2000/svg"><g><path d="m184 400c-30.878 0-56 25.121-56 56s25.122 56 56 56 56-25.121 56-56-25.122-56-56-56zm0 80c-13.234 0-24-10.767-24-24s10.766-24 24-24 24 10.767 24 24-10.766 24-24 24z"/><path d="m408 400c-30.878 0-56 25.121-56 56s25.122 56 56 56 56-25.121 56-56-25.122-56-56-56zm0 80c-13.234 0-24-10.767-24-24s10.766-24 24-24 24 10.767 24 24-10.766 24-24 24z"/><path d="m133.465 400h-45.465c-4.418 0-8 3.582-8 8v32c0 13.255 10.745 24 24 24h6.244c1.182 0 2.087-1.017 1.99-2.195-1.776-21.476 6.271-43.093 22.603-58.359 1.32-1.234.434-3.446-1.372-3.446z"/><path d="m357.465 400h-122.93c-1.806 0-2.692 2.212-1.372 3.446 16.325 15.26 24.381 36.874 22.603 58.359-.097 1.178.808 2.195 1.99 2.195h76.489c1.182 0 2.087-1.017 1.99-2.195-1.776-21.476 6.271-43.093 22.603-58.359 1.319-1.234.433-3.446-1.373-3.446z"/><path d="m488 400h-29.465c-1.806 0-2.692 2.212-1.372 3.446 16.326 15.26 24.38 36.874 22.603 58.359-.097 1.178.808 2.195 1.99 2.195h6.244c13.255 0 24-10.745 24-24v-16c0-13.255-10.745-24-24-24z"/><path d="m83 88h42c1.657 0 3-1.343 3-3v-37c0-26.51-21.49-48-48-48h-55.454c-13.421 0-24.765 10.983-24.543 24.403.216 13.045 10.901 23.597 23.997 23.597h50c3.314 0 6 2.686 6 6v31c0 1.657 1.343 3 3 3z"/><path d="m83 384h42c1.657 0 3-1.343 3-3v-274c0-1.657-1.343-3-3-3h-42c-1.657 0-3 1.343-3 3v274c0 1.657 1.343 3 3 3z"/><path d="m333 32h-26c-1.657 0-3 1.343-3 3v42c0 1.657 1.343 3 3 3h26c1.657 0 3-1.343 3-3v-42c0-1.657-1.343-3-3-3z"/><path d="m264 200h112c13.23 0 24-2.77 24-16v-128c0-13.255-10.745-24-24-24h-21c-1.657 0-3 1.343-3 3v53c0 4.418-3.582 8-8 8h-48c-4.418 0-8-3.582-8-8v-53c0-1.657-1.343-3-3-3h-21c-13.255 0-24 10.745-24 24v128c0 13.23 10.77 16 24 16zm88-40h16c4.42 0 8 3.58 8 8s-3.58 8-8 8h-16c-4.42 0-8-3.58-8-8s3.58-8 8-8z"/><path d="m245 216h-26c-1.657 0-3 1.343-3 3v42c0 1.657 1.343 3 3 3h26c1.657 0 3-1.343 3-3v-42c0-1.657-1.343-3-3-3z"/><path d="m176 384h112c13.23 0 24-2.77 24-16v-128c0-13.255-10.745-24-24-24h-21c-1.657 0-3 1.343-3 3v53c0 4.418-3.582 8-8 8h-48c-4.418 0-8-3.582-8-8v-53c0-1.657-1.343-3-3-3h-21c-13.255 0-24 10.745-24 24v128c0 13.23 10.77 16 24 16zm88-40h16c4.42 0 8 3.58 8 8s-3.58 8-8 8h-16c-4.42 0-8-3.58-8-8s3.58-8 8-8z"/><path d="m395 264h26c1.657 0 3-1.343 3-3v-42c0-1.657-1.343-3-3-3h-26c-1.657 0-3 1.343-3 3v42c0 1.657 1.343 3 3 3z"/><path d="m376 272v-53c0-1.657-1.343-3-3-3h-21c-13.255 0-24 10.745-24 24v128c0 13.23 10.77 16 24 16h112c13.23 0 24-2.77 24-16v-128c0-13.255-10.745-24-24-24h-21c-1.657 0-3 1.343-3 3v53c0 4.418-3.582 8-8 8h-48c-4.418 0-8-3.582-8-8zm64 72h16c4.42 0 8 3.58 8 8s-3.58 8-8 8h-16c-4.42 0-8-3.58-8-8s3.58-8 8-8z"/></g></svg>