<svg id="Capa_1" enable-background="new 0 0 512 512" height="512" viewBox="0 0 512 512" width="512" xmlns="http://www.w3.org/2000/svg"><g><path d="m195 368c0-89.657 68.557-163.595 156-172.163v-180.837c0-8.284-6.716-15-15-15h-321c-8.284 0-15 6.716-15 15v449c0 8.284 6.716 15 15 15h220.417c-25.213-30.062-40.417-68.786-40.417-111zm-130-208v-80c0-8.284 6.716-15 15-15h192c8.284 0 15 6.716 15 15v80c0 8.284-6.716 15-15 15h-192c-8.284 0-15-6.716-15-15zm39 239h-16c-8.284 0-15-6.716-15-15s6.716-15 15-15h16c8.284 0 15 6.716 15 15s-6.716 15-15 15zm0-80h-16c-8.284 0-15-6.716-15-15s6.716-15 15-15h16c8.284 0 15 6.716 15 15s-6.716 15-15 15zm0-80h-16c-8.284 0-15-6.716-15-15s6.716-15 15-15h16c8.284 0 15 6.716 15 15s-6.716 15-15 15zm80 0h-16c-8.284 0-15-6.716-15-15s6.716-15 15-15h16c8.284 0 15 6.716 15 15s-6.716 15-15 15z"/><path d="m363.76 225.068c-76.981 2.268-138.76 65.583-138.76 142.932 0 78.838 64.178 144 143 144 78.851 0 144-65.149 144-144 0-80.842-68.207-145.389-148.24-142.932zm19.26 207.872v3.135c0 8.284-6.716 15-15 15s-15-6.716-15-15v-1.439c-6.911-1.212-13.225-3.798-21.202-9.017-6.933-4.535-8.876-13.832-4.341-20.764 4.535-6.933 13.832-8.876 20.764-4.341 7.312 4.784 9.681 5.157 19.677 5.087 9.65-.064 13.495-7.639 14.246-12.104.674-4.009-.083-9.339-7.517-11.966-12.454-4.403-25.225-9.455-34.272-16.551-20.601-16.158-14.382-53.063 12.646-62.884v-2.172c0-8.284 6.716-15 15-15s15 6.716 15 15v.831c7.391 2.086 13.343 5.859 17.432 10.017 5.809 5.907 5.729 15.404-.177 21.212-5.904 5.806-15.394 5.729-21.202-.167-.837-.817-5.458-4.67-15.462-1.657-3.994 1.203-5.067 5.345-5.301 6.585-.488 2.59.207 4.336.579 4.628 5.658 4.438 16.195 8.491 25.756 11.872 39.534 13.975 34.718 66.556-1.626 79.695z"/><path d="m95 95h162v50h-162z"/></g></svg>