<?xml version="1.0" encoding="UTF-8" standalone="no"?>
<!DOCTYPE svg PUBLIC "-//W3C//DTD SVG 1.1//EN" "http://www.w3.org/Graphics/SVG/1.1/DTD/svg11.dtd">
<svg width="100%" height="100%" viewBox="0 0 100 101" version="1.1" xmlns="http://www.w3.org/2000/svg" xmlns:xlink="http://www.w3.org/1999/xlink" xml:space="preserve" xmlns:serif="http://www.serif.com/" style="fill-rule:evenodd;clip-rule:evenodd;stroke-linejoin:round;stroke-miterlimit:2;">
    <g transform="matrix(1,0,0,1,0,-1322)">
        <g id="ico_01" transform="matrix(0.334279,0,0,0.334279,464.647,777.984)">
            <rect x="-1390" y="1629.85" width="299.152" height="299.152" style="fill:none;"/>
            <clipPath id="_clip1">
                <rect x="-1390" y="1629.85" width="299.152" height="299.152"/>
            </clipPath>
            <g clip-path="url(#_clip1)">
                <g transform="matrix(0.632054,0,0,0.632054,-1404.35,1610.53)">
                    <path d="M430.728,45.48L307.528,63.88C293.966,65.903 281.407,72.232 271.712,81.928L32.072,321.536C26.073,327.535 22.699,335.68 22.699,344.164C22.699,352.648 26.073,360.793 32.072,366.792L145.208,479.928C151.207,485.927 159.352,489.301 167.836,489.301C176.32,489.301 184.465,485.927 190.464,479.928L430.208,240.184C439.831,230.561 446.138,218.115 448.208,204.664L457.808,142.376L467.096,82C467.344,80.387 467.469,78.758 467.469,77.127C467.469,59.572 453.024,45.127 435.469,45.127C433.882,45.127 432.297,45.245 430.728,45.48ZM422.4,123.552C417.858,128.159 411.652,130.756 405.183,130.756C391.92,130.756 381.007,119.843 381.007,106.58C381.007,93.318 391.92,82.404 405.183,82.404C418.445,82.404 429.359,93.318 429.359,106.58C429.359,107.805 429.265,109.029 429.08,110.24C428.322,115.273 425.981,119.936 422.4,123.552Z" style="fill:rgb(237,28,36);fill-rule:nonzero;"/>
                </g>
                <g transform="matrix(0.632054,0,0,0.632054,-1404.35,1610.53)">
                    <path d="M450.048,48.68L441.792,102.4L432.192,164.688C430.122,178.139 423.815,190.585 414.192,200.208L174.464,439.928C168.465,445.927 160.32,449.301 151.836,449.301C143.352,449.301 135.207,445.927 129.208,439.928L24.208,334.936C20.743,346.176 23.775,358.456 32.072,366.792L145.208,479.928C151.207,485.927 159.352,489.301 167.836,489.301C176.32,489.301 184.465,485.927 190.464,479.928L430.208,240.184C439.831,230.561 446.138,218.115 448.208,204.664L457.808,142.376L467.096,82C469.173,68.417 462.279,54.943 450.048,48.68Z" style="fill:rgb(207,24,32);fill-rule:nonzero;"/>
                </g>
                <g transform="matrix(0.632054,0,0,0.632054,-1404.35,1610.53)">
                    <path d="M184.8,349.824C180.301,345.324 174.191,342.793 167.828,342.793C161.465,342.793 155.355,345.324 150.856,349.824L139.544,361.136C138.044,362.638 136.006,363.482 133.884,363.482C131.762,363.482 129.724,362.638 128.224,361.136L116.912,349.824C115.41,348.324 114.566,346.286 114.566,344.164C114.566,342.042 115.41,340.004 116.912,338.504L139.536,315.88C140.976,314.389 141.782,312.395 141.782,310.322C141.782,305.934 138.17,302.322 133.782,302.322C131.709,302.322 129.715,303.128 128.224,304.568L105.6,327.2C101.1,331.699 98.569,337.809 98.569,344.172C98.569,350.535 101.1,356.645 105.6,361.144L116.912,372.456C121.411,376.956 127.521,379.487 133.884,379.487C140.247,379.487 146.357,376.956 150.856,372.456L162.168,361.144C163.668,359.642 165.706,358.798 167.828,358.798C169.95,358.798 171.988,359.642 173.488,361.144L184.8,372.448C186.302,373.948 187.146,375.986 187.146,378.108C187.146,380.23 186.302,382.268 184.8,383.768L162.176,406.4C160.616,407.907 159.734,409.985 159.734,412.154C159.734,416.543 163.345,420.154 167.734,420.154C169.903,420.154 171.981,419.272 173.488,417.712L196.12,395.088C200.62,390.589 203.151,384.479 203.151,378.116C203.151,371.753 200.62,365.643 196.12,361.144L184.8,349.824Z" style="fill:rgb(241,242,242);fill-rule:nonzero;"/>
                    <path d="M276.12,301.024L191.264,250.112C188.128,248.231 184.083,248.728 181.496,251.312L170.176,262.632C167.592,265.219 167.095,269.264 168.976,272.4L219.888,357.256C221.333,359.662 223.942,361.138 226.748,361.138C231.138,361.138 234.75,357.526 234.75,353.136C234.75,351.685 234.355,350.26 233.608,349.016L219.848,326.088L244.952,300.984L267.88,314.744C269.124,315.491 270.549,315.886 272,315.886C276.39,315.886 280.002,312.274 280.002,307.884C280.002,305.078 278.526,302.469 276.12,301.024ZM211.36,311.952L185.904,269.552L188.384,267.072L230.784,292.528L211.36,311.952Z" style="fill:rgb(241,242,242);fill-rule:nonzero;"/>
                    <path d="M325.256,243.312L296.968,271.6L234.744,209.376C233.237,207.816 231.159,206.934 228.99,206.934C224.601,206.934 220.99,210.545 220.99,214.934C220.99,217.103 221.872,219.181 223.432,220.688L291.312,288.568C294.415,291.67 299.521,291.67 302.624,288.568L336.568,254.624C338.008,253.133 338.814,251.139 338.814,249.066C338.814,244.678 335.202,241.066 330.814,241.066C328.741,241.066 326.747,241.872 325.256,243.312Z" style="fill:rgb(241,242,242);fill-rule:nonzero;"/>
                    <path d="M378.512,190.056L355.88,212.688L333.256,190.056L344.568,178.744C346.008,177.253 346.814,175.259 346.814,173.186C346.814,168.798 343.202,165.186 338.814,165.186C336.741,165.186 334.747,165.992 333.256,167.432L321.944,178.744L299.312,156.12L321.944,133.488C323.504,131.981 324.386,129.903 324.386,127.734C324.386,123.345 320.775,119.734 316.386,119.734C314.217,119.734 312.139,120.616 310.632,122.176L282.344,150.464C279.242,153.567 279.242,158.673 282.344,161.776L350.224,229.656C353.327,232.758 358.433,232.758 361.536,229.656L389.824,201.368C391.384,199.861 392.266,197.783 392.266,195.614C392.266,191.225 388.655,187.614 384.266,187.614C382.097,187.614 380.019,188.496 378.512,190.056Z" style="fill:rgb(241,242,242);fill-rule:nonzero;"/>
                </g>
                <g transform="matrix(0.632054,0,0,0.632054,-1404.35,1610.53)">
                    <path d="M430.208,240.184L339.632,330.76C340.008,333.704 340.28,336.016 340.384,336.68C350.68,402.224 378.488,448 408,448C447.024,448 480,371.064 480,280C480,232.28 471.2,187.888 455.712,155.872L448.208,204.672C446.136,218.12 439.829,230.563 430.208,240.184Z" style="fill:none;fill-rule:nonzero;"/>
                </g>
                <g transform="matrix(0.632054,0,0,0.632054,-1404.35,1610.53)">
                    <path d="M459.656,130.24L467.08,82C469.16,68.42 462.273,54.948 450.048,48.68L441.792,102.4L440.784,108.944C448.105,115.058 454.467,122.237 459.656,130.24Z" style="fill:rgb(207,24,32);fill-rule:nonzero;"/>
                </g>
                <g transform="matrix(0.632054,0,0,0.632054,-1404.35,1610.53)">
                    <path d="M464.72,138.4C463.12,135.528 461.384,132.864 459.656,130.264C454.476,122.245 448.119,115.05 440.8,108.92C431.712,100.918 420.104,96.345 408,96C403.611,96 400,99.611 400,104C400,108.389 403.611,112 408,112C419.768,112.889 430.621,118.738 437.832,128.08C442.817,133.657 447.174,139.766 450.824,146.296C452.544,149.304 454.128,152.592 455.712,155.896C471.2,187.888 480,232.28 480,280C480,371.064 447.024,448 408,448C378.488,448 350.68,402.224 340.384,336.68C340.28,336.016 340.008,333.704 339.632,330.76L325.6,344.8C338.216,417.376 370.224,464 408,464C457.344,464 496,383.2 496,280C496,224.68 484.592,173.048 464.72,138.4Z" style="fill:rgb(255,205,0);fill-rule:nonzero;"/>
                </g>
            </g>
        </g>
    </g>
</svg>
