<?xml version="1.0" encoding="UTF-8" standalone="no"?>
<!DOCTYPE svg PUBLIC "-//W3C//DTD SVG 1.1//EN" "http://www.w3.org/Graphics/SVG/1.1/DTD/svg11.dtd">
<svg width="100%" height="100%" viewBox="0 0 101 101" version="1.1" xmlns="http://www.w3.org/2000/svg" xmlns:xlink="http://www.w3.org/1999/xlink" xml:space="preserve" xmlns:serif="http://www.serif.com/" style="fill-rule:evenodd;clip-rule:evenodd;stroke-linejoin:round;stroke-miterlimit:2;">
    <g transform="matrix(1,0,0,1,-439,-1322)">
        <g id="ico_05" transform="matrix(0.334279,0,0,0.334279,903.874,777.984)">
            <rect x="-1390" y="1629.85" width="299.152" height="299.152" style="fill:none;"/>
            <g transform="matrix(0.600173,0,0,0.600173,-1245.08,1816.5)">
                <g transform="matrix(0.545745,0,0,0.545745,51.6062,18.6367)">
                    <path d="M309.944,78.472C312.014,76.968 313.242,74.559 313.242,72C313.242,67.611 309.63,64 305.242,64L279.248,64C275.791,64 272.708,61.759 271.64,58.472L263.64,33.752C262.564,30.478 259.487,28.25 256.04,28.25C252.593,28.25 249.516,30.478 248.44,33.752L240.44,58.472C239.363,61.787 236.238,64.035 232.752,64L206.758,64C202.37,64 198.758,67.611 198.758,72C198.758,74.559 199.986,76.968 202.056,78.472L223.08,93.752C225.879,95.782 227.059,99.407 225.992,102.696L217.992,127.416C217.732,128.215 217.6,129.049 217.6,129.889C217.6,134.278 221.212,137.889 225.6,137.889C227.29,137.889 228.937,137.354 230.304,136.36L251.328,121.08C254.125,119.047 257.939,119.047 260.736,121.08L281.76,136.36C283.127,137.354 284.774,137.889 286.464,137.889C290.852,137.889 294.464,134.278 294.464,129.889C294.464,129.049 294.332,128.215 294.072,127.416L286.072,102.696C285.005,99.407 286.185,95.782 288.984,93.752L309.944,78.472Z" style="fill:rgb(255,152,17);fill-rule:nonzero;"/>
                </g>
                <g transform="matrix(0.545745,0,0,0.545745,51.6062,18.6367)">
                    <path d="M255.64,58.472C256.708,61.759 259.791,64 263.248,64L279.248,64C275.791,64 272.708,61.759 271.64,58.472L263.64,33.752C262.564,30.478 259.487,28.25 256.04,28.25C252.593,28.25 249.516,30.478 248.44,33.752L248,34.952L255.64,58.472Z" style="fill:rgb(223,133,15);fill-rule:nonzero;"/>
                </g>
                <g transform="matrix(0.545745,0,0,0.545745,51.6062,18.6367)">
                    <path d="M309.944,78.472C312.014,76.968 313.242,74.559 313.242,72C313.242,67.611 309.63,64 305.242,64L289.242,64C293.63,64 297.242,67.611 297.242,72C297.242,74.559 296.014,76.968 293.944,78.472L272.92,93.752C270.121,95.782 268.941,99.407 270.008,102.696L278.008,127.416C278.661,129.372 278.496,131.511 277.552,133.344L281.696,136.36C283.063,137.354 284.71,137.889 286.4,137.889C290.788,137.889 294.4,134.278 294.4,129.889C294.4,129.049 294.268,128.215 294.008,127.416L286.008,102.696C284.941,99.407 286.121,95.782 288.92,93.752L309.944,78.472Z" style="fill:rgb(223,133,15);fill-rule:nonzero;"/>
                </g>
            </g>
            <g transform="matrix(0.600173,0,0,0.600173,-1409.91,1872.32)">
                <g transform="matrix(0.545745,0,0,0.545745,51.6062,18.6367)">
                    <path d="M477.944,78.472C480.014,76.968 481.242,74.559 481.242,72C481.242,67.611 477.63,64 473.242,64L447.248,64C443.791,64 440.708,61.759 439.64,58.472L431.64,33.752C430.564,30.478 427.487,28.25 424.04,28.25C420.593,28.25 417.516,30.478 416.44,33.752L408.44,58.472C407.363,61.787 404.238,64.035 400.752,64L374.758,64C370.37,64 366.758,67.611 366.758,72C366.758,74.559 367.986,76.968 370.056,78.472L391.08,93.752C393.879,95.782 395.059,99.407 393.992,102.696L385.992,127.416C385.732,128.215 385.6,129.049 385.6,129.889C385.6,134.278 389.212,137.889 393.6,137.889C395.29,137.889 396.937,137.354 398.304,136.36L419.328,121.08C422.125,119.047 425.939,119.047 428.736,121.08L449.76,136.36C451.127,137.354 452.774,137.889 454.464,137.889C458.852,137.889 462.464,134.278 462.464,129.889C462.464,129.049 462.332,128.215 462.072,127.416L454.072,102.696C453.005,99.407 454.185,95.782 456.984,93.752L477.944,78.472Z" style="fill:rgb(255,152,17);fill-rule:nonzero;"/>
                </g>
                <g transform="matrix(0.545745,0,0,0.545745,51.6062,18.6367)">
                    <path d="M423.64,58.472C424.708,61.759 427.791,64 431.248,64L447.248,64C443.791,64 440.708,61.759 439.64,58.472L431.64,33.752C430.564,30.478 427.487,28.25 424.04,28.25C420.593,28.25 417.516,30.478 416.44,33.752L416,34.952L423.64,58.472Z" style="fill:rgb(223,133,15);fill-rule:nonzero;"/>
                </g>
                <g transform="matrix(0.545745,0,0,0.545745,51.6062,18.6367)">
                    <path d="M477.944,78.472C480.014,76.968 481.242,74.559 481.242,72C481.242,67.611 477.63,64 473.242,64L457.242,64C461.63,64 465.242,67.611 465.242,72C465.242,74.559 464.014,76.968 461.944,78.472L440.92,93.752C438.121,95.782 436.941,99.407 438.008,102.696L446.008,127.416C446.661,129.372 446.496,131.511 445.552,133.344L449.696,136.36C451.063,137.354 452.71,137.889 454.4,137.889C458.788,137.889 462.4,134.278 462.4,129.889C462.4,129.049 462.268,128.215 462.008,127.416L454.008,102.696C452.941,99.407 454.121,95.782 456.92,93.752L477.944,78.472Z" style="fill:rgb(223,133,15);fill-rule:nonzero;"/>
                </g>
            </g>
            <g transform="matrix(0.600173,0,0,0.600173,-1381.2,1577.63)">
                <g transform="matrix(0.545745,0,0,0.545745,-1.39378,416.637)">
                    <path d="M149.944,78.472C152.014,76.968 153.242,74.559 153.242,72C153.242,67.611 149.63,64 145.242,64L119.248,64C115.791,64 112.708,61.759 111.64,58.472L103.64,33.752C102.564,30.478 99.487,28.25 96.04,28.25C92.593,28.25 89.516,30.478 88.44,33.752L80.44,58.472C79.363,61.787 76.238,64.035 72.752,64L46.758,64C42.37,64 38.758,67.611 38.758,72C38.758,74.559 39.986,76.968 42.056,78.472L63.08,93.752C65.879,95.782 67.059,99.407 65.992,102.696L57.992,127.416C57.732,128.215 57.6,129.049 57.6,129.889C57.6,134.278 61.212,137.889 65.6,137.889C67.29,137.889 68.937,137.354 70.304,136.36L91.328,121.08C94.125,119.047 97.939,119.047 100.736,121.08L121.76,136.36C123.127,137.354 124.774,137.889 126.464,137.889C130.852,137.889 134.464,134.278 134.464,129.889C134.464,129.049 134.332,128.215 134.072,127.416L126.072,102.696C125.005,99.407 126.185,95.782 128.984,93.752L149.944,78.472Z" style="fill:rgb(255,152,17);fill-rule:nonzero;"/>
                </g>
                <g transform="matrix(0.545745,0,0,0.545745,-1.39378,416.637)">
                    <path d="M95.64,58.472C96.708,61.759 99.791,64 103.248,64L119.248,64C115.791,64 112.708,61.759 111.64,58.472L103.64,33.752C102.564,30.478 99.487,28.25 96.04,28.25C92.593,28.25 89.516,30.478 88.44,33.752L88,34.952L95.64,58.472Z" style="fill:rgb(223,133,15);fill-rule:nonzero;"/>
                </g>
                <g transform="matrix(0.545745,0,0,0.545745,-1.39378,416.637)">
                    <path d="M149.944,78.472C152.014,76.968 153.242,74.559 153.242,72C153.242,67.611 149.63,64 145.242,64L129.242,64C133.63,64 137.242,67.611 137.242,72C137.242,74.559 136.014,76.968 133.944,78.472L112.92,93.752C110.121,95.782 108.941,99.407 110.008,102.696L118.008,127.416C118.661,129.372 118.496,131.511 117.552,133.344L121.696,136.36C123.063,137.354 124.71,137.889 126.4,137.889C130.788,137.889 134.4,134.278 134.4,129.889C134.4,129.049 134.268,128.215 134.008,127.416L126.008,102.696C124.941,99.407 126.121,95.782 128.92,93.752L149.944,78.472Z" style="fill:rgb(223,133,15);fill-rule:nonzero;"/>
                </g>
            </g>
            <g transform="matrix(0.564295,0,0,0.564295,-1384.52,1581.87)">
                <rect x="184" y="304" width="144" height="48" style="fill:none;"/>
                <rect x="184" y="304" width="144" height="48" style="fill:none;"/>
                <path d="M32,240L72,312L96.872,299.568L57.768,226.104L32,240Z" style="fill:rgb(237,28,36);fill-rule:nonzero;"/>
                <path d="M454.24,226.08L415.36,299.68L376,280L376,456L136,456L136,280L96.88,299.6L57.76,226.08L135.84,184L200,184C200,214.721 225.279,240 256,240C286.721,240 312,214.721 312,184L376.16,184L454.24,226.08Z" style="fill:rgb(0,109,240);fill-rule:nonzero;"/>
                <path d="M435.2,215.824L406.664,269.848C402.625,277.488 393.089,280.547 385.36,276.68L383.144,275.576C380.925,274.469 378.479,273.893 376,273.893C367.224,273.893 360.002,281.112 360,289.888L360,376C360,411.109 331.109,440 296,440L136,440L136,509.948L376,509.948L376,280L415.36,299.68L454.24,226.08L435.2,215.824Z" style="fill:rgb(0,94,206);fill-rule:nonzero;"/>
                <path d="M480,240L454.232,226.104L415.384,299.696L440,312L480,240Z" style="fill:rgb(237,28,36);fill-rule:nonzero;"/>
                <g transform="matrix(1,0,0,1,0,53.9476)">
                    <rect x="136" y="456" width="240" height="32" style="fill:rgb(216,0,39);"/>
                </g>
                <rect x="184" y="304" width="144" height="48" style="fill:rgb(255,205,0);"/>
            </g>
            <g transform="matrix(0.661791,0,0,0.661791,-1406.68,1617.27)">
                <circle cx="251.218" cy="66.218" r="47.218" style="fill:rgb(0,109,240);"/>
            </g>
        </g>
    </g>
</svg>
