<?xml version="1.0" encoding="UTF-8" standalone="no"?>
<!DOCTYPE svg PUBLIC "-//W3C//DTD SVG 1.1//EN" "http://www.w3.org/Graphics/SVG/1.1/DTD/svg11.dtd">
<svg width="100%" height="100%" viewBox="0 0 101 101" version="1.1" xmlns="http://www.w3.org/2000/svg" xmlns:xlink="http://www.w3.org/1999/xlink" xml:space="preserve" xmlns:serif="http://www.serif.com/" style="fill-rule:evenodd;clip-rule:evenodd;stroke-linejoin:round;stroke-miterlimit:2;">
    <g transform="matrix(1,0,0,1,-108,-1445)">
        <g id="ico_08" transform="matrix(0.334279,0,0,0.334279,572.997,900.454)">
            <rect x="-1390" y="1629.85" width="299.152" height="299.152" style="fill:none;"/>
            <clipPath id="_clip1">
                <rect x="-1390" y="1629.85" width="299.152" height="299.152"/>
            </clipPath>
            <g clip-path="url(#_clip1)">
                <g transform="matrix(0.644723,0,0,0.644723,-1405.47,1614.37)">
                    <path d="M456,384L56,384C47.223,384 40,376.777 40,368L40,120C40,111.223 47.223,104 56,104L456,104C464.777,104 472,111.223 472,120L472,368C472,376.777 464.777,384 456,384Z" style="fill:rgb(0,79,172);fill-rule:nonzero;"/>
                </g>
                <g transform="matrix(0.644723,0,0,0.644723,-1405.47,1614.37)">
                    <rect x="72" y="152" width="368" height="176" style="fill:rgb(255,205,0);fill-rule:nonzero;"/>
                </g>
                <g transform="matrix(0.644723,0,0,0.644723,-1405.47,1614.37)">
                    <path d="M416,152L416,216C416,268.664 372.664,312 320,312L72,312L72,328L440,328L440,152L416,152Z" style="fill:rgb(235,191,0);fill-rule:nonzero;"/>
                </g>
                <g transform="matrix(0.644723,0,0,0.644723,-1405.47,1614.37)">
                    <path d="M200,24L200,168L160,168L160,216L112,168L24,168L24,24L200,24Z" style="fill:rgb(237,28,36);fill-rule:nonzero;"/>
                </g>
                <g transform="matrix(0.644723,0,0,0.644723,-1405.47,1614.37)">
                    <rect x="184" y="24" width="16" height="144" style="fill:rgb(207,24,32);fill-rule:nonzero;"/>
                </g>
                <g transform="matrix(0.644723,0,0,0.644723,-1405.47,1614.37)">
                    <path d="M452.32,160C450.922,164.483 449.101,168.823 446.88,172.96L472.16,198.24L438.24,232.16L412.96,206.88C408.823,209.101 404.483,210.922 400,212.32L400,248L352,248L352,212.32C347.517,210.922 343.177,209.101 339.04,206.88L313.76,232.16L279.84,198.24L305.12,172.96C302.899,168.823 301.078,164.483 299.68,160L264,160L264,112L299.68,112C301.078,107.517 302.899,103.177 305.12,99.04L279.84,73.76L313.76,39.84L339.04,65.12C343.177,62.899 347.517,61.078 352,59.68L352,24L400,24L400,59.68C404.483,61.078 408.823,62.899 412.96,65.12L438.24,39.84L472.16,73.76L446.88,99.04C449.101,103.177 450.922,107.517 452.32,112L488,112L488,160L452.32,160Z" style="fill:rgb(255,152,17);fill-rule:nonzero;"/>
                </g>
                <g transform="matrix(0.644723,0,0,0.644723,-1405.47,1614.37)">
                    <circle cx="376" cy="136" r="40" style="fill:rgb(241,242,242);"/>
                </g>
                <g transform="matrix(0.644723,0,0,0.644723,-1405.47,1614.37)">
                    <rect x="216" y="384" width="80" height="56" style="fill:rgb(109,110,113);fill-rule:nonzero;"/>
                </g>
                <g transform="matrix(0.644723,0,0,0.644723,-1405.47,1614.37)">
                    <path d="M168,440C159.223,440 152,447.223 152,456L152,488L360,488L360,456C360,447.223 352.777,440 344,440L168,440Z" style="fill:rgb(167,169,172);fill-rule:nonzero;"/>
                </g>
                <g transform="matrix(0.644723,0,0,0.644723,-1405.47,1614.37)">
                    <rect x="216" y="384" width="80" height="16" style="fill:rgb(88,89,91);fill-rule:nonzero;"/>
                </g>
                <g transform="matrix(0.644723,0,0,0.644723,-1405.47,1614.37)">
                    <circle cx="84.448" cy="136" r="12.448" style="fill:rgb(78,144,30);"/>
                </g>
                <g transform="matrix(0.644723,0,0,0.644723,-1405.47,1614.37)">
                    <circle cx="123.552" cy="136" r="12.448" style="fill:rgb(78,144,30);"/>
                </g>
                <g transform="matrix(0.644723,0,0,0.644723,-1405.47,1614.37)">
                    <path d="M140.904,64L82.064,64L79.936,47.008C79.438,43.024 76.015,40.001 72,40L56,40C51.611,40 48,43.611 48,48C48,52.389 51.611,56 56,56L64.936,56L71.064,104.992C71.562,108.976 74.985,111.999 79,112L130.2,112C133.636,112.001 136.706,109.788 137.792,106.528L148.456,74.528C148.728,73.713 148.866,72.859 148.866,72C148.866,67.626 145.278,64.021 140.904,64Z" style="fill:rgb(94,172,36);fill-rule:nonzero;"/>
                </g>
                <g transform="matrix(0.644723,0,0,0.644723,-1405.47,1614.37)">
                    <path d="M264,352L248,352C243.611,352 240,355.611 240,360C240,364.389 243.611,368 248,368L264,368C268.389,368 272,364.389 272,360C272,355.611 268.389,352 264,352Z" style="fill:rgb(241,242,242);fill-rule:nonzero;"/>
                </g>
                <g transform="matrix(0.644723,0,0,0.644723,-1405.47,1614.37)">
                    <path d="M112,208C112,203.611 108.389,200 104,200C99.611,200 96,203.611 96,208L96,296C96,300.389 99.611,304 104,304L392,304C396.389,304 400,300.389 400,296C400,291.611 396.389,288 392,288L112,288L112,208Z" style="fill:rgb(0,109,240);fill-rule:nonzero;"/>
                </g>
                <g transform="matrix(0.644723,0,0,0.644723,-1405.47,1614.37)">
                    <path d="M328,264C328,268.389 324.389,272 320,272L264,272C261.134,272.011 258.473,270.482 257.04,268L231.28,222.8L198.48,268.64C197.254,270.42 195.339,271.609 193.2,271.92C191.079,272.223 188.921,271.676 187.2,270.4L160.72,250.56L133.68,277.68C130.545,280.754 125.455,280.754 122.32,277.68C119.221,274.557 119.221,269.443 122.32,266.32L154.32,234.32C157.132,231.512 161.631,231.203 164.8,233.6L190.24,252.72L225.52,203.36C227.064,201.114 229.679,199.837 232.4,200C235.113,200.161 237.574,201.662 238.96,204L268.64,256L320,256C324.389,256 328,259.611 328,264Z" style="fill:rgb(237,28,36);fill-rule:nonzero;"/>
                </g>
            </g>
        </g>
    </g>
</svg>
