<?xml version="1.0" encoding="UTF-8" standalone="no"?>
<!DOCTYPE svg PUBLIC "-//W3C//DTD SVG 1.1//EN" "http://www.w3.org/Graphics/SVG/1.1/DTD/svg11.dtd">
<svg width="100%" height="100%" viewBox="0 0 101 101" version="1.1" xmlns="http://www.w3.org/2000/svg" xmlns:xlink="http://www.w3.org/1999/xlink" xml:space="preserve" xmlns:serif="http://www.serif.com/" style="fill-rule:evenodd;clip-rule:evenodd;stroke-linejoin:round;stroke-miterlimit:2;">
    <g transform="matrix(1,0,0,1,-109,-1322)">
        <g id="ico_02" transform="matrix(0.334279,0,0,0.334279,574.406,777.984)">
            <rect x="-1390" y="1629.85" width="299.152" height="299.152" style="fill:none;"/>
            <clipPath id="_clip1">
                <rect x="-1390" y="1629.85" width="299.152" height="299.152"/>
            </clipPath>
            <g clip-path="url(#_clip1)">
                <g transform="matrix(0.644723,0,0,0.644723,-1405.47,1614.37)">
                    <path d="M488,120L24,120L72,24L440,24L488,120Z" style="fill:rgb(139,94,60);fill-rule:nonzero;"/>
                </g>
                <g transform="matrix(0.644723,0,0,0.644723,-1405.47,1614.37)">
                    <rect x="24" y="120" width="464" height="368" style="fill:rgb(196,154,108);fill-rule:nonzero;"/>
                </g>
                <g transform="matrix(0.644723,0,0,0.644723,-1405.47,1614.37)">
                    <path d="M456,120L456,328C456,406.996 390.996,472 312,472L24,472L24,488L488,488L488,120L456,120Z" style="fill:rgb(169,124,80);fill-rule:nonzero;"/>
                </g>
                <g transform="matrix(0.644723,0,0,0.644723,-1405.47,1614.37)">
                    <path d="M304,120L288,24L224,24L208,120L304,120Z" style="fill:rgb(238,135,0);fill-rule:nonzero;"/>
                </g>
                <g transform="matrix(0.644723,0,0,0.644723,-1405.47,1614.37)">
                    <rect x="208" y="120" width="96" height="112" style="fill:rgb(255,152,17);fill-rule:nonzero;"/>
                </g>
                <g transform="matrix(0.644723,0,0,0.644723,-1405.47,1614.37)">
                    <rect x="72" y="312" width="160" height="128" style="fill:rgb(94,172,36);fill-rule:nonzero;"/>
                </g>
                <g transform="matrix(0.644723,0,0,0.644723,-1405.47,1614.37)">
                    <path d="M144,384L200,384C204.389,384 208,380.389 208,376C208,371.611 204.389,368 200,368L144,368C139.611,368 136,371.611 136,376C136,380.389 139.611,384 144,384Z" style="fill:rgb(241,242,242);fill-rule:nonzero;"/>
                    <path d="M144,352L200,352C204.389,352 208,348.389 208,344C208,339.611 204.389,336 200,336L144,336C139.611,336 136,339.611 136,344C136,348.389 139.611,352 144,352Z" style="fill:rgb(241,242,242);fill-rule:nonzero;"/>
                    <path d="M144,416L200,416C204.389,416 208,412.389 208,408C208,403.611 204.389,400 200,400L144,400C139.611,400 136,403.611 136,408C136,412.389 139.611,416 144,416Z" style="fill:rgb(241,242,242);fill-rule:nonzero;"/>
                    <path d="M104,384L112,384C116.389,384 120,380.389 120,376C120,371.611 116.389,368 112,368L104,368C99.611,368 96,371.611 96,376C96,380.389 99.611,384 104,384Z" style="fill:rgb(241,242,242);fill-rule:nonzero;"/>
                    <path d="M104,352L112,352C116.389,352 120,348.389 120,344C120,339.611 116.389,336 112,336L104,336C99.611,336 96,339.611 96,344C96,348.389 99.611,352 104,352Z" style="fill:rgb(241,242,242);fill-rule:nonzero;"/>
                    <path d="M104,416L112,416C116.389,416 120,412.389 120,408C120,403.611 116.389,400 112,400L104,400C99.611,400 96,403.611 96,408C96,412.389 99.611,416 104,416Z" style="fill:rgb(241,242,242);fill-rule:nonzero;"/>
                </g>
                <g transform="matrix(0.644723,0,0,0.644723,-1405.47,1614.37)">
                    <path d="M440,352L440,312L360,312L360,352C359.996,370.939 373.444,387.412 392,391.2L392,432L376,432C371.611,432 368,435.611 368,440C368,444.389 371.611,448 376,448L424,448C428.389,448 432,444.389 432,440C432,435.611 428.389,432 424,432L408,432L408,391.2C426.556,387.412 440.004,370.939 440,352Z" style="fill:rgb(237,28,36);fill-rule:nonzero;"/>
                </g>
            </g>
        </g>
    </g>
</svg>
