<?xml version="1.0" encoding="UTF-8" standalone="no"?>
<!DOCTYPE svg PUBLIC "-//W3C//DTD SVG 1.1//EN" "http://www.w3.org/Graphics/SVG/1.1/DTD/svg11.dtd">
<svg width="100%" height="100%" viewBox="0 0 101 101" version="1.1" xmlns="http://www.w3.org/2000/svg" xmlns:xlink="http://www.w3.org/1999/xlink" xml:space="preserve" xmlns:serif="http://www.serif.com/" style="fill-rule:evenodd;clip-rule:evenodd;stroke-linejoin:round;stroke-miterlimit:2;">
    <g transform="matrix(1,0,0,1,-219,-1322)">
        <g id="ico_03" transform="matrix(0.334279,0,0,0.334279,684.4,777.984)">
            <rect x="-1390" y="1629.85" width="299.152" height="299.152" style="fill:none;"/>
            <clipPath id="_clip1">
                <rect x="-1390" y="1629.85" width="299.152" height="299.152"/>
            </clipPath>
            <g clip-path="url(#_clip1)">
                <g transform="matrix(0.644723,0,0,0.644723,-1405.47,1614.37)">
                    <path d="M456,456L88,456L88,104L168,24L456,24L456,456Z" style="fill:rgb(255,218,170);fill-rule:nonzero;"/>
                </g>
                <g transform="matrix(0.644723,0,0,0.644723,-1405.47,1614.37)">
                    <path d="M424,24L424,312C424,390.996 358.996,456 280,456L456,456L456,24L424,24Z" style="fill:rgb(255,196,119);fill-rule:nonzero;"/>
                </g>
                <g transform="matrix(0.644723,0,0,0.644723,-1405.47,1614.37)">
                    <path d="M456,104C473.555,104 488,118.445 488,136L488,152L424,152L424,136C424,118.445 438.445,104 456,104Z" style="fill:rgb(237,28,36);fill-rule:nonzero;"/>
                </g>
                <g transform="matrix(0.644723,0,0,0.644723,-1405.47,1614.37)">
                    <rect x="432" y="392" width="48" height="32" style="fill:rgb(237,28,36);fill-rule:nonzero;"/>
                </g>
                <g transform="matrix(0.644723,0,0,0.644723,-1405.47,1614.37)">
                    <path d="M456,480L440,424L472,424L456,480Z" style="fill:rgb(0,71,155);fill-rule:nonzero;"/>
                </g>
                <g transform="matrix(0.644723,0,0,0.644723,-1405.47,1614.37)">
                    <path d="M312,264C285.057,264 260.286,279.142 248,303.12L248,368.88C260.31,392.861 285.097,408 312.054,408C351.552,408 384.054,375.498 384.054,336C384.054,296.502 351.552,264 312.054,264C312.036,264 312.018,264 312,264Z" style="fill:rgb(255,152,17);fill-rule:nonzero;"/>
                </g>
                <g transform="matrix(0.644723,0,0,0.644723,-1405.47,1614.37)">
                    <path d="M168,96L168,24.56L88.24,104L160,104C164.389,104 168,100.389 168,96Z" style="fill:rgb(255,80,35);fill-rule:nonzero;"/>
                </g>
                <g transform="matrix(0.644723,0,0,0.644723,-1405.47,1614.37)">
                    <circle cx="232" cy="136" r="8" style="fill:rgb(155,201,255);"/>
                </g>
                <g transform="matrix(0.644723,0,0,0.644723,-1405.47,1614.37)">
                    <circle cx="272" cy="136" r="8" style="fill:rgb(155,201,255);"/>
                </g>
                <g transform="matrix(0.644723,0,0,0.644723,-1405.47,1614.37)">
                    <path d="M248,200C248,182.339 233.661,168 216,168L56,168C38.339,168 24,182.339 24,200L24,456C24,473.661 38.339,488 56,488L216,488C233.661,488 248,473.661 248,456L248,200Z" style="fill:rgb(0,109,240);"/>
                </g>
                <g transform="matrix(0.644723,0,0,0.644723,-1405.47,1614.37)">
                    <path d="M216,168L200,168C217.555,168 232,182.445 232,200L232,456C232,473.555 217.555,488 200,488L216,488C233.555,488 248,473.555 248,456L248,200C248,182.445 233.555,168 216,168Z" style="fill:rgb(0,94,206);fill-rule:nonzero;"/>
                </g>
                <g transform="matrix(0.644723,0,0,0.644723,-1405.47,1614.37)">
                    <rect x="56" y="424" width="32" height="32" style="fill:rgb(237,28,36);fill-rule:nonzero;"/>
                    <rect x="56" y="360" width="32" height="32" style="fill:rgb(237,28,36);fill-rule:nonzero;"/>
                    <rect x="56" y="296" width="32" height="32" style="fill:rgb(237,28,36);fill-rule:nonzero;"/>
                    <rect x="120" y="296" width="32" height="32" style="fill:rgb(237,28,36);fill-rule:nonzero;"/>
                    <rect x="184" y="296" width="32" height="32" style="fill:rgb(237,28,36);fill-rule:nonzero;"/>
                    <rect x="184" y="360" width="32" height="32" style="fill:rgb(237,28,36);fill-rule:nonzero;"/>
                    <rect x="120" y="360" width="32" height="32" style="fill:rgb(237,28,36);fill-rule:nonzero;"/>
                    <rect x="120" y="424" width="32" height="32" style="fill:rgb(237,28,36);fill-rule:nonzero;"/>
                    <rect x="184" y="424" width="32" height="32" style="fill:rgb(237,28,36);fill-rule:nonzero;"/>
                </g>
                <g transform="matrix(0.644723,0,0,0.644723,-1405.47,1614.37)">
                    <rect x="56" y="200" width="160" height="64" style="fill:rgb(94,172,36);fill-rule:nonzero;"/>
                </g>
                <g transform="matrix(0.644723,0,0,0.644723,-1405.47,1614.37)">
                    <circle cx="228.448" cy="136" r="12.448" style="fill:rgb(78,144,30);"/>
                </g>
                <g transform="matrix(0.644723,0,0,0.644723,-1405.47,1614.37)">
                    <circle cx="267.552" cy="136" r="12.448" style="fill:rgb(78,144,30);"/>
                </g>
                <g transform="matrix(0.644723,0,0,0.644723,-1405.47,1614.37)">
                    <path d="M284.904,64L226.064,64L223.936,47.008C223.438,43.024 220.015,40.001 216,40L200,40C195.611,40 192,43.611 192,48C192,52.389 195.611,56 200,56L208.936,56L215.064,104.992C215.562,108.976 218.985,111.999 223,112L274.2,112C277.636,112.001 280.706,109.788 281.792,106.528L292.456,74.528C292.728,73.713 292.866,72.859 292.866,72C292.866,67.626 289.278,64.021 284.904,64Z" style="fill:rgb(94,172,36);fill-rule:nonzero;"/>
                </g>
                <g transform="matrix(0.644723,0,0,0.644723,-1405.47,1614.37)">
                    <path d="M320,360L304,360C299.611,360 296,356.389 296,352C296,347.611 292.389,344 288,344C283.611,344 280,347.611 280,352C280,365.13 290.774,375.947 303.904,376L303.8,383.904C303.747,388.29 307.31,391.943 311.696,392L311.808,392C316.158,392 319.751,388.453 319.808,384.104L319.912,376L320,376C333.166,376 344,365.166 344,352C344,338.834 333.166,328 320,328L304,328C299.611,328 296,324.389 296,320C296,315.611 299.611,312 304,312L320,312C324.389,312 328,315.611 328,320C328,324.389 331.611,328 336,328C340.389,328 344,324.389 344,320C344,306.834 333.166,296 320,296L320,288C320,283.611 316.389,280 312,280C307.611,280 304,283.611 304,288L304,296C290.834,296 280,306.834 280,320C280,333.166 290.834,344 304,344L320,344C324.389,344 328,347.611 328,352C328,356.389 324.389,360 320,360Z" style="fill:rgb(241,242,242);fill-rule:nonzero;"/>
                </g>
                <g transform="matrix(0.644723,0,0,0.644723,-1405.47,1614.37)">
                    <path d="M400,56L328,56C323.611,56 320,59.611 320,64C320,68.389 323.611,72 328,72L400,72C404.389,72 408,68.389 408,64C408,59.611 404.389,56 400,56Z" style="fill:rgb(255,80,35);fill-rule:nonzero;"/>
                </g>
                <g transform="matrix(0.644723,0,0,0.644723,-1405.47,1614.37)">
                    <path d="M408,96C408,91.611 404.389,88 400,88L328,88C323.611,88 320,91.611 320,96C320,100.389 323.611,104 328,104L400,104C404.389,104 408,100.389 408,96Z" style="fill:rgb(255,80,35);fill-rule:nonzero;"/>
                </g>
                <g transform="matrix(0.644723,0,0,0.644723,-1405.47,1614.37)">
                    <path d="M392,120L312,120C307.611,120 304,123.611 304,128C304,132.389 307.611,136 312,136L392,136C396.389,136 400,132.389 400,128C400,123.611 396.389,120 392,120Z" style="fill:rgb(255,80,35);fill-rule:nonzero;"/>
                </g>
                <g transform="matrix(0.644723,0,0,0.644723,-1405.47,1614.37)">
                    <path d="M400,160C400,155.611 396.389,152 392,152L312,152C307.611,152 304,155.611 304,160C304,164.389 307.611,168 312,168L392,168C396.389,168 400,164.389 400,160Z" style="fill:rgb(255,80,35);fill-rule:nonzero;"/>
                </g>
                <g transform="matrix(0.644723,0,0,0.644723,-1405.47,1614.37)">
                    <path d="M424,176L416,176C402.834,176 392,186.834 392,200L392,264C392,268.389 395.611,272 400,272C404.389,272 408,268.389 408,264L408,200C408,195.611 411.611,192 416,192L424,192C428.389,192 432,188.389 432,184C432,179.611 428.389,176 424,176Z" style="fill:rgb(0,71,155);fill-rule:nonzero;"/>
                </g>
                <g transform="matrix(0.644723,0,0,0.644723,-1405.47,1614.37)">
                    <path d="M368,184L280,184C275.611,184 272,187.611 272,192C272,196.389 275.611,200 280,200L368,200C372.389,200 376,196.389 376,192C376,187.611 372.389,184 368,184Z" style="fill:rgb(255,80,35);fill-rule:nonzero;"/>
                </g>
                <g transform="matrix(0.644723,0,0,0.644723,-1405.47,1614.37)">
                    <path d="M368,216L280,216C275.611,216 272,219.611 272,224C272,228.389 275.611,232 280,232L368,232C372.389,232 376,228.389 376,224C376,219.611 372.389,216 368,216Z" style="fill:rgb(255,80,35);fill-rule:nonzero;"/>
                </g>
                <g transform="matrix(0.644723,0,0,0.644723,-1405.47,1614.37)">
                    <rect x="424" y="152" width="64" height="32" style="fill:rgb(255,205,0);fill-rule:nonzero;"/>
                </g>
                <g transform="matrix(0.644723,0,0,0.644723,-1405.47,1614.37)">
                    <rect x="424" y="184" width="64" height="208" style="fill:rgb(0,94,206);fill-rule:nonzero;"/>
                </g>
            </g>
        </g>
    </g>
</svg>
