<?xml version="1.0" encoding="UTF-8" standalone="no"?>
<!DOCTYPE svg PUBLIC "-//W3C//DTD SVG 1.1//EN" "http://www.w3.org/Graphics/SVG/1.1/DTD/svg11.dtd">
<svg width="100%" height="100%" viewBox="0 0 101 101" version="1.1" xmlns="http://www.w3.org/2000/svg" xmlns:xlink="http://www.w3.org/1999/xlink" xml:space="preserve" xmlns:serif="http://www.serif.com/" style="fill-rule:evenodd;clip-rule:evenodd;stroke-linejoin:round;stroke-miterlimit:2;">
    <g transform="matrix(1,0,0,1,-218,-1445)">
        <g id="ico_09" transform="matrix(0.334279,0,0,0.334279,682.672,900.454)">
            <rect x="-1390" y="1629.85" width="299.152" height="299.152" style="fill:none;"/>
            <clipPath id="_clip1">
                <rect x="-1390" y="1629.85" width="299.152" height="299.152"/>
            </clipPath>
            <g clip-path="url(#_clip1)">
                <g transform="matrix(0.584281,0,0,0.584281,-1390,1629.85)">
                    <path d="M454.8,465.5L388.533,465.5L388.533,496.5C388.533,500.918 392.115,504.5 396.533,504.5L446.8,504.5C451.218,504.5 454.8,500.918 454.8,496.5L454.8,465.5Z" style="fill:rgb(247,244,244);fill-rule:nonzero;"/>
                    <path d="M431.8,465.5L431.8,496.5C431.8,500.918 428.218,504.5 423.8,504.5L446.8,504.5C451.218,504.5 454.8,500.918 454.8,496.5L454.8,465.5L431.8,465.5Z" style="fill:rgb(222,215,235);fill-rule:nonzero;"/>
                    <path d="M123.467,465.5L57.2,465.5L57.2,496.5C57.2,500.918 60.782,504.5 65.2,504.5L115.467,504.5C119.885,504.5 123.467,500.918 123.467,496.5L123.467,465.5Z" style="fill:rgb(247,244,244);fill-rule:nonzero;"/>
                    <path d="M100.467,465.5L100.467,496.5C100.467,500.918 96.885,504.5 92.467,504.5L115.467,504.5C119.885,504.5 123.467,500.918 123.467,496.5L123.467,465.5L100.467,465.5Z" style="fill:rgb(222,215,235);fill-rule:nonzero;"/>
                    <g>
                        <path d="M355.966,222.866C364.802,222.866 371.966,215.703 371.966,206.866L371.966,23.5C371.966,14.664 364.802,7.5 355.966,7.5L289.133,7.5L256,22.2L222.867,7.5L156.034,7.5C147.197,7.5 140.034,14.664 140.034,23.5L140.034,206.866C140.034,215.703 147.197,222.866 156.034,222.866L156.034,228.033L240.001,222.866L272,222.866L355.4,228.033L355.966,222.866Z" style="fill:rgb(210,172,135);fill-rule:nonzero;"/>
                        <path d="M355.966,7.5L332.966,7.5C341.803,7.5 348.966,14.664 348.966,23.5L348.966,206.866C348.966,215.703 341.803,222.866 332.966,222.866L332.4,228.033L355.4,228.033L355.966,222.866C364.803,222.866 371.966,215.703 371.966,206.866L371.966,23.5C371.966,14.664 364.803,7.5 355.966,7.5Z" style="fill:rgb(200,148,123);fill-rule:nonzero;"/>
                        <path d="M277.145,72.881L259.704,64.161C257.372,62.995 254.627,62.995 252.295,64.161L234.854,72.881C229.346,75.635 222.866,71.63 222.866,65.472L222.866,7.5L289.132,7.5L289.132,65.473C289.133,71.63 282.653,75.635 277.145,72.881Z" style="fill:rgb(70,94,123);fill-rule:nonzero;"/>
                        <path d="M264,123.466L330.833,123.466C335.251,123.466 338.833,127.048 338.833,131.466L338.833,181.732C338.833,186.15 335.251,189.732 330.833,189.732L264,189.732C259.582,189.732 256,186.15 256,181.732L256,131.466C256,127.048 259.582,123.466 264,123.466Z" style="fill:rgb(247,244,244);fill-rule:nonzero;"/>
                        <path d="M266.133,7.5L266.133,65.472C266.133,66.098 266.05,66.694 265.924,67.27L277.145,72.881C282.653,75.635 289.133,71.63 289.133,65.472L289.133,7.5L266.133,7.5Z" style="fill:rgb(58,78,101);fill-rule:nonzero;"/>
                        <path d="M330.833,123.466L307.833,123.466C312.251,123.466 315.833,127.048 315.833,131.466L315.833,181.733C315.833,186.151 312.251,189.733 307.833,189.733L330.833,189.733C335.251,189.733 338.833,186.151 338.833,181.733L338.833,131.466C338.833,127.048 335.251,123.466 330.833,123.466Z" style="fill:rgb(222,215,235);fill-rule:nonzero;"/>
                    </g>
                    <g>
                        <path d="M240,438.233C248.837,438.233 256,431.07 256,422.233L256,238.867C256,230.03 248.837,222.867 240,222.867L173.167,222.867L140.034,237.567L106.901,222.867L40.067,222.867C31.23,222.867 24.067,230.03 24.067,238.867L24.067,422.233C24.067,431.07 31.23,438.233 40.067,438.233L40.067,443.4L239.433,443.4L240,438.233Z" style="fill:rgb(210,172,135);fill-rule:nonzero;"/>
                        <path d="M240,222.867L217,222.867C225.837,222.867 233,230.03 233,238.867L233,422.233C233,431.07 225.837,438.233 217,438.233L216.434,443.4L239.434,443.4L240,438.233C248.837,438.233 256,431.07 256,422.233L256,238.867C256,230.03 248.836,222.867 240,222.867Z" style="fill:rgb(200,148,123);fill-rule:nonzero;"/>
                        <path d="M161.179,288.248L143.738,279.527C141.406,278.361 138.661,278.361 136.329,279.527L118.888,288.248C113.38,291.002 106.9,286.997 106.9,280.839L106.9,222.867L173.167,222.867L173.167,280.839C173.167,286.997 166.686,291.002 161.179,288.248Z" style="fill:rgb(70,94,123);fill-rule:nonzero;"/>
                        <path d="M148.033,338.833L214.866,338.833C219.284,338.833 222.866,342.415 222.866,346.833L222.866,397.1C222.866,401.518 219.284,405.1 214.866,405.1L148.033,405.1C143.615,405.1 140.033,401.518 140.033,397.1L140.033,346.834C140.033,342.415 143.615,338.833 148.033,338.833Z" style="fill:rgb(247,244,244);fill-rule:nonzero;"/>
                        <path d="M150.167,222.867L150.167,280.839C150.167,281.465 150.084,282.061 149.958,282.637L161.179,288.248C166.686,291.002 173.167,286.997 173.167,280.839L173.167,222.867L150.167,222.867Z" style="fill:rgb(58,78,101);fill-rule:nonzero;"/>
                        <path d="M214.866,338.833L191.866,338.833C196.284,338.833 199.866,342.415 199.866,346.833L199.866,397.1C199.866,401.518 196.284,405.1 191.866,405.1L214.866,405.1C219.284,405.1 222.866,401.518 222.866,397.1L222.866,346.833C222.866,342.415 219.285,338.833 214.866,338.833Z" style="fill:rgb(222,215,235);fill-rule:nonzero;"/>
                    </g>
                    <g>
                        <path d="M471.933,438.233C480.769,438.233 487.933,431.07 487.933,422.233L487.933,238.867C487.933,230.03 480.769,222.867 471.933,222.867L405.1,222.867L371.967,237.567L338.834,222.867L272,222.867C263.163,222.867 256,230.03 256,238.867L256,422.233C256,431.07 263.163,438.233 272,438.233L272,443.4L471.366,443.4L471.933,438.233Z" style="fill:rgb(210,172,135);fill-rule:nonzero;"/>
                        <path d="M471.933,222.867L448.933,222.867C457.77,222.867 464.933,230.03 464.933,238.867L464.933,422.233C464.933,431.07 457.77,438.233 448.933,438.233L448.367,443.4L471.367,443.4L471.933,438.233C480.77,438.233 487.933,431.07 487.933,422.233L487.933,238.867C487.933,230.03 480.769,222.867 471.933,222.867Z" style="fill:rgb(200,148,123);fill-rule:nonzero;"/>
                        <path d="M393.112,288.248L375.671,279.527C373.339,278.361 370.594,278.361 368.262,279.527L350.821,288.248C345.313,291.002 338.833,286.997 338.833,280.839L338.833,222.867L405.1,222.867L405.1,280.839C405.1,286.997 398.619,291.002 393.112,288.248Z" style="fill:rgb(70,94,123);fill-rule:nonzero;"/>
                        <path d="M379.966,338.833L446.799,338.833C451.217,338.833 454.799,342.415 454.799,346.833L454.799,397.1C454.799,401.518 451.217,405.1 446.799,405.1L379.966,405.1C375.548,405.1 371.966,401.518 371.966,397.1L371.966,346.834C371.966,342.415 375.548,338.833 379.966,338.833Z" style="fill:rgb(247,244,244);fill-rule:nonzero;"/>
                        <path d="M382.1,222.867L382.1,280.839C382.1,281.465 382.017,282.061 381.891,282.637L393.112,288.248C398.62,291.002 405.1,286.997 405.1,280.839L405.1,222.867L382.1,222.867Z" style="fill:rgb(58,78,101);fill-rule:nonzero;"/>
                        <path d="M446.799,338.833L423.799,338.833C428.217,338.833 431.799,342.415 431.799,346.833L431.799,397.1C431.799,401.518 428.217,405.1 423.799,405.1L446.799,405.1C451.217,405.1 454.799,401.518 454.799,397.1L454.799,346.833C454.799,342.415 451.218,338.833 446.799,338.833Z" style="fill:rgb(222,215,235);fill-rule:nonzero;"/>
                    </g>
                    <path d="M496.5,471.367L15.5,471.367C11.082,471.367 7.5,467.785 7.5,463.367L7.5,446.234C7.5,441.816 11.082,438.234 15.5,438.234L496.5,438.234C500.918,438.234 504.5,441.816 504.5,446.234L504.5,463.367C504.5,467.785 500.918,471.367 496.5,471.367Z" style="fill:rgb(208,197,226);fill-rule:nonzero;"/>
                    <path d="M496.5,438.233L473.5,438.233C477.918,438.233 481.5,441.815 481.5,446.233L481.5,463.366C481.5,467.784 477.918,471.366 473.5,471.366L496.5,471.366C500.918,471.366 504.5,467.784 504.5,463.366L504.5,446.233C504.5,441.815 500.918,438.233 496.5,438.233Z" style="fill:rgb(192,179,216);fill-rule:nonzero;"/>
                </g>
                <g transform="matrix(0.584281,0,0,0.584281,-1390,1629.85)">
                    <path d="M496.5,430.733L493.836,430.733C494.863,428.095 495.433,425.23 495.433,422.233L495.433,238.867C495.433,225.909 484.891,215.367 471.933,215.367L377.869,215.367C378.896,212.729 379.466,209.864 379.466,206.867L379.466,23.5C379.466,10.542 368.924,0 355.966,0L156.033,0C143.075,0 132.533,10.542 132.533,23.5L132.533,206.867C132.533,209.864 133.103,212.729 134.13,215.367L40.067,215.367C27.109,215.367 16.567,225.909 16.567,238.867L16.567,422.234C16.567,425.231 17.137,428.096 18.164,430.734L15.5,430.734C6.953,430.734 0,437.687 0,446.234L0,463.367C0,471.914 6.953,478.867 15.5,478.867L49.7,478.867L49.7,496.5C49.7,505.047 56.653,512 65.2,512L115.467,512C124.014,512 130.967,505.047 130.967,496.5L130.967,478.867L381.033,478.867L381.033,496.5C381.033,505.047 387.986,512 396.533,512L446.8,512C455.347,512 462.3,505.047 462.3,496.5L462.3,478.867L496.5,478.867C505.047,478.867 512,471.914 512,463.367L512,446.234C512,437.686 505.047,430.733 496.5,430.733ZM480.434,238.867L480.434,422.234C480.434,426.921 476.62,430.734 471.934,430.734L272,430.734C267.313,430.734 263.5,426.921 263.5,422.234L263.5,238.867C263.5,234.18 267.313,230.367 272,230.367L331.333,230.367L331.333,280.84C331.333,286.35 334.131,291.369 338.818,294.266C341.37,295.843 344.232,296.638 347.107,296.638C349.513,296.638 351.928,296.08 354.175,294.957L371.615,286.237C371.835,286.127 372.096,286.128 372.316,286.237L389.757,294.957L389.756,294.957C394.685,297.421 400.425,297.162 405.112,294.266C409.8,291.369 412.597,286.35 412.597,280.84L412.597,230.367L471.931,230.367C476.62,230.367 480.434,234.18 480.434,238.867ZM447.3,463.867L64.7,463.867L64.7,445.734L447.3,445.734L447.3,463.867ZM397.6,280.839C397.6,280.959 397.6,281.276 397.229,281.506C396.86,281.734 396.573,281.593 396.467,281.54L396.466,281.54L379.026,272.82C374.608,270.611 369.33,270.61 364.908,272.82L347.468,281.54C347.361,281.593 347.077,281.735 346.705,281.505C346.334,281.276 346.334,280.959 346.334,280.839L346.334,230.366L397.6,230.366L397.6,280.839ZM281.633,15L281.633,65.473C281.633,65.593 281.633,65.91 281.262,66.14C280.892,66.368 280.606,66.227 280.5,66.174L280.499,66.174L263.059,57.454C258.638,55.243 253.361,55.244 248.942,57.454L231.501,66.174C231.395,66.228 231.111,66.37 230.739,66.14C230.367,65.91 230.367,65.593 230.367,65.473L230.367,15L281.633,15ZM147.533,206.867L147.533,23.5C147.533,18.813 151.346,15 156.033,15L215.367,15L215.367,65.473C215.367,70.983 218.165,76.002 222.852,78.899C225.403,80.475 228.266,81.271 231.14,81.271C233.547,81.27 235.962,80.713 238.208,79.59L255.649,70.87C255.869,70.76 256.131,70.761 256.35,70.871L273.792,79.591L273.791,79.591C278.72,82.056 284.46,81.797 289.147,78.901C293.835,76.004 296.632,70.985 296.632,65.475L296.632,15L355.966,15C360.652,15 364.466,18.813 364.466,23.5L364.466,206.867C364.466,211.554 360.652,215.367 355.966,215.367L156.033,215.367C151.346,215.367 147.533,211.554 147.533,206.867ZM165.666,230.368L165.666,280.84C165.666,280.96 165.666,281.276 165.294,281.507C164.923,281.736 164.639,281.594 164.532,281.541L147.091,272.821C142.671,270.61 137.393,270.611 132.974,272.821L115.532,281.542C115.426,281.595 115.141,281.736 114.77,281.508C114.398,281.278 114.398,280.961 114.398,280.841L114.398,230.368L165.666,230.368ZM31.567,422.233L31.567,238.867C31.567,234.18 35.38,230.367 40.067,230.367L99.4,230.367L99.4,280.84C99.4,286.35 102.198,291.369 106.886,294.266C109.437,295.843 112.3,296.638 115.174,296.638C117.581,296.638 119.996,296.08 122.242,294.957L139.684,286.236C139.903,286.127 140.164,286.127 140.384,286.236L157.825,294.956C162.754,297.42 168.494,297.161 173.182,294.265C177.869,291.368 180.667,286.349 180.667,280.839L180.667,230.366L240,230.366C244.687,230.366 248.5,234.179 248.5,238.866L248.5,422.233C248.5,426.92 244.687,430.733 240,430.733L40.067,430.733C35.38,430.733 31.567,426.92 31.567,422.233ZM15,463.367L15,446.234C15,445.958 15.224,445.734 15.5,445.734L49.7,445.734L49.7,463.867L15.5,463.867C15.224,463.867 15,463.643 15,463.367ZM115.967,496.5C115.967,496.776 115.743,497 115.467,497L65.2,497C64.924,497 64.7,496.776 64.7,496.5L64.7,478.867L115.967,478.867L115.967,496.5ZM447.3,496.5C447.3,496.776 447.075,497 446.8,497L396.533,497C396.258,497 396.033,496.776 396.033,496.5L396.033,478.867L447.3,478.867L447.3,496.5ZM497,463.367C497,463.643 496.775,463.867 496.5,463.867L462.3,463.867L462.3,445.734L496.5,445.734C496.775,445.734 497,445.958 497,446.234L497,463.367Z" style="fill-rule:nonzero;"/>
                    <path d="M206.3,197.233C210.442,197.233 213.8,193.875 213.8,189.733C213.8,185.591 210.442,182.233 206.3,182.233L173.167,182.233C169.025,182.233 165.667,185.591 165.667,189.733C165.667,193.875 169.025,197.233 173.167,197.233L206.3,197.233Z" style="fill-rule:nonzero;"/>
                    <path d="M173.166,164.1L206.3,164.1C210.442,164.1 213.8,160.742 213.8,156.6C213.8,152.458 210.442,149.1 206.3,149.1L173.167,149.1C169.025,149.1 165.667,152.458 165.667,156.6C165.666,160.742 169.024,164.1 173.166,164.1Z" style="fill-rule:nonzero;"/>
                    <path d="M264,197.233L330.833,197.233C339.38,197.233 346.333,190.28 346.333,181.733L346.333,131.466C346.333,122.919 339.38,115.966 330.833,115.966L264,115.966C255.453,115.966 248.5,122.919 248.5,131.466L248.5,181.733C248.5,190.28 255.453,197.233 264,197.233ZM263.5,131.467C263.5,131.191 263.725,130.967 264,130.967L330.833,130.967C331.108,130.967 331.333,131.191 331.333,131.467L331.333,181.734C331.333,182.01 331.108,182.234 330.833,182.234L264,182.234C263.725,182.234 263.5,182.01 263.5,181.734L263.5,131.467Z" style="fill-rule:nonzero;"/>
                    <path d="M293.275,164.1L301.558,164.1C305.701,164.1 309.058,160.742 309.058,156.6C309.058,152.458 305.701,149.1 301.558,149.1L293.275,149.1C289.132,149.1 285.775,152.458 285.775,156.6C285.775,160.742 289.133,164.1 293.275,164.1Z" style="fill-rule:nonzero;"/>
                    <path d="M90.333,412.6C94.475,412.6 97.833,409.242 97.833,405.1C97.833,400.958 94.475,397.6 90.333,397.6L57.2,397.6C53.058,397.6 49.7,400.958 49.7,405.1C49.7,409.242 53.058,412.6 57.2,412.6L90.333,412.6Z" style="fill-rule:nonzero;"/>
                    <path d="M57.2,379.467L90.333,379.467C94.475,379.467 97.833,376.109 97.833,371.967C97.833,367.825 94.475,364.467 90.333,364.467L57.2,364.467C53.058,364.467 49.7,367.825 49.7,371.967C49.7,376.109 53.058,379.467 57.2,379.467Z" style="fill-rule:nonzero;"/>
                    <path d="M148.033,412.6L214.867,412.6C223.414,412.6 230.367,405.647 230.367,397.1L230.367,346.833C230.367,338.286 223.414,331.333 214.867,331.333L148.033,331.333C139.486,331.333 132.533,338.286 132.533,346.833L132.533,397.1C132.533,405.647 139.486,412.6 148.033,412.6ZM147.533,346.833C147.533,346.557 147.757,346.333 148.033,346.333L214.867,346.333C215.143,346.333 215.367,346.557 215.367,346.833L215.367,397.1C215.367,397.376 215.143,397.6 214.867,397.6L148.033,397.6C147.757,397.6 147.533,397.376 147.533,397.1L147.533,346.833Z" style="fill-rule:nonzero;"/>
                    <path d="M177.308,379.467L185.592,379.467C189.734,379.467 193.092,376.109 193.092,371.967C193.092,367.825 189.734,364.467 185.592,364.467L177.308,364.467C173.166,364.467 169.808,367.825 169.808,371.967C169.808,376.109 173.166,379.467 177.308,379.467Z" style="fill-rule:nonzero;"/>
                    <path d="M322.267,397.6L289.133,397.6C284.99,397.6 281.633,400.958 281.633,405.1C281.633,409.242 284.99,412.6 289.133,412.6L322.267,412.6C326.41,412.6 329.767,409.242 329.767,405.1C329.767,400.958 326.409,397.6 322.267,397.6Z" style="fill-rule:nonzero;"/>
                    <path d="M322.267,364.467L289.133,364.467C284.99,364.467 281.633,367.825 281.633,371.967C281.633,376.109 284.99,379.467 289.133,379.467L322.267,379.467C326.41,379.467 329.767,376.109 329.767,371.967C329.767,367.825 326.409,364.467 322.267,364.467Z" style="fill-rule:nonzero;"/>
                    <path d="M379.967,331.333C371.42,331.333 364.467,338.286 364.467,346.833L364.467,397.1C364.467,405.647 371.42,412.6 379.967,412.6L446.8,412.6C455.347,412.6 462.3,405.647 462.3,397.1L462.3,346.833C462.3,338.286 455.347,331.333 446.8,331.333L379.967,331.333ZM447.3,346.833L447.3,397.1C447.3,397.376 447.075,397.6 446.8,397.6L379.967,397.6C379.692,397.6 379.467,397.376 379.467,397.1L379.467,346.833C379.467,346.557 379.692,346.333 379.967,346.333L446.8,346.333C447.075,346.333 447.3,346.558 447.3,346.833Z" style="fill-rule:nonzero;"/>
                    <path d="M417.525,364.467L409.242,364.467C405.099,364.467 401.742,367.825 401.742,371.967C401.742,376.109 405.099,379.467 409.242,379.467L417.525,379.467C421.668,379.467 425.025,376.109 425.025,371.967C425.025,367.825 421.668,364.467 417.525,364.467Z" style="fill-rule:nonzero;"/>
                </g>
            </g>
        </g>
    </g>
</svg>
