<?xml version="1.0" encoding="UTF-8" standalone="no"?>
<!DOCTYPE svg PUBLIC "-//W3C//DTD SVG 1.1//EN" "http://www.w3.org/Graphics/SVG/1.1/DTD/svg11.dtd">
<svg width="100%" height="100%" viewBox="0 0 101 101" version="1.1" xmlns="http://www.w3.org/2000/svg" xmlns:xlink="http://www.w3.org/1999/xlink" xml:space="preserve" xmlns:serif="http://www.serif.com/" style="fill-rule:evenodd;clip-rule:evenodd;stroke-linejoin:round;stroke-miterlimit:2;">
    <g transform="matrix(1,0,0,1,-331,-1445)">
        <g id="ico_10" transform="matrix(0.334279,0,0,0.334279,796.228,900.454)">
            <rect x="-1390" y="1629.85" width="299.152" height="299.152" style="fill:none;"/>
            <g transform="matrix(0.743895,0.743895,-0.743895,0.743895,-1364.72,1225.29)">
                <path d="M456,104C473.555,104 488,118.445 488,136L488,152L424,152L424,136C424,118.445 438.445,104 456,104Z" style="fill:rgb(237,28,36);fill-rule:nonzero;"/>
                <rect x="432" y="392" width="48" height="32" style="fill:rgb(237,28,36);fill-rule:nonzero;"/>
                <path d="M456,480L440,424L472,424L456,480Z" style="fill:rgb(0,71,155);fill-rule:nonzero;"/>
                <path d="M424,176L416,176C402.834,176 392,186.834 392,200L392,264C392,268.389 395.611,272 400,272C404.389,272 408,268.389 408,264L408,200C408,195.611 411.611,192 416,192L424,192C428.389,192 432,188.389 432,184C432,179.611 428.389,176 424,176Z" style="fill:rgb(0,71,155);fill-rule:nonzero;"/>
                <rect x="424" y="152" width="64" height="32" style="fill:rgb(255,205,0);fill-rule:nonzero;"/>
                <rect x="424" y="184" width="64" height="208" style="fill:rgb(0,94,206);fill-rule:nonzero;"/>
            </g>
        </g>
    </g>
</svg>
