<?xml version="1.0" encoding="UTF-8" standalone="no"?>
<!DOCTYPE svg PUBLIC "-//W3C//DTD SVG 1.1//EN" "http://www.w3.org/Graphics/SVG/1.1/DTD/svg11.dtd">
<svg width="100%" height="100%" viewBox="0 0 101 101" version="1.1" xmlns="http://www.w3.org/2000/svg" xmlns:xlink="http://www.w3.org/1999/xlink" xml:space="preserve" xmlns:serif="http://www.serif.com/" style="fill-rule:evenodd;clip-rule:evenodd;stroke-linejoin:round;stroke-miterlimit:2;">
    <g transform="matrix(1,0,0,1,-443,-1445)">
        <g id="ico_11" transform="matrix(0.334279,0,0,0.334279,907.794,900.454)">
            <rect x="-1390" y="1629.85" width="299.152" height="299.152" style="fill:none;"/>
            <g transform="matrix(15.6894,0,0,15.6894,-29426.4,-2168.95)">
                <g transform="matrix(1,0,0,-1,-1,1830.4)">
                    <path d="M1805,1584L1790,1584L1790.74,1569.21L1804.26,1569.21L1805,1584Z" style="fill:rgb(237,28,36);"/>
                </g>
                <g transform="matrix(1.5,0,0,0.712952,-878,-892.895)">
                    <rect x="1778" y="1594" width="10" height="2" style="fill:rgb(0,94,206);"/>
                </g>
                <g transform="matrix(0.5,0,0,0.712952,905,-894.321)">
                    <rect x="1778" y="1594" width="10" height="2" style="fill:rgb(0,71,155);"/>
                </g>
                <g transform="matrix(0.997189,-0.0749236,0.0749236,0.997189,-114.083,-1183.99)">
                    <path d="M1794,1571.25C1794,1571.11 1793.89,1571 1793.75,1571L1793.25,1571C1793.11,1571 1793,1571.11 1793,1571.25L1793,1581.94C1793,1582.07 1793.11,1582.19 1793.25,1582.19L1793.75,1582.19C1793.89,1582.19 1794,1582.07 1794,1581.94L1794,1571.25Z" style="fill:rgb(255,205,0);"/>
                </g>
                <g transform="matrix(-0.997189,-0.0749236,-0.0749236,0.997189,3707.21,-1183.99)">
                    <path d="M1794,1571.25C1794,1571.11 1793.89,1571 1793.75,1571L1793.25,1571C1793.11,1571 1793,1571.11 1793,1571.25L1793,1581.94C1793,1582.07 1793.11,1582.19 1793.25,1582.19L1793.75,1582.19C1793.89,1582.19 1794,1582.07 1794,1581.94L1794,1571.25Z" style="fill:rgb(255,205,0);"/>
                </g>
                <g transform="matrix(1,0,0,1,3,-1322.79)">
                    <path d="M1794,1571.25C1794,1571.11 1793.89,1571 1793.75,1571L1793.25,1571C1793.11,1571 1793,1571.11 1793,1571.25L1793,1581.94C1793,1582.07 1793.11,1582.19 1793.25,1582.19L1793.75,1582.19C1793.89,1582.19 1794,1582.07 1794,1581.94L1794,1571.25Z" style="fill:rgb(255,205,0);"/>
                </g>
            </g>
        </g>
    </g>
</svg>
