<svg id="Layer_1" enable-background="new 0 0 512 512" height="512" viewBox="0 0 512 512" width="512" xmlns="http://www.w3.org/2000/svg"><g><path d="m512 96c0-17.673-14.327-32-32-32h-448c-17.673 0-32 14.327-32 32v29c0 1.657 1.343 3 3 3h506c1.657 0 3-1.343 3-3z"/><path d="m512 147v42c0 1.657-1.343 3-3 3h-506c-1.657 0-3-1.343-3-3v-42c0-1.657 1.343-3 3-3h506c1.657 0 3 1.343 3 3z"/><path d="m387 320h42c1.654 0 3-1.346 3-3v-42c0-1.654-1.346-3-3-3h-42c-1.654 0-3 1.346-3 3v42c0 1.654 1.346 3 3 3z"/><path d="m509 208h-506c-1.657 0-3 1.343-3 3v205c0 17.673 14.327 32 32 32h448c17.673 0 32-14.327 32-32v-205c0-1.657-1.343-3-3-3zm-141 67c0-10.477 8.523-19 19-19h42c10.477 0 19 8.523 19 19v42c0 10.477-8.523 19-19 19h-42c-10.477 0-19-8.523-19-19zm-320-3h168c4.42 0 8 3.58 8 8s-3.58 8-8 8h-168c-4.42 0-8-3.58-8-8s3.58-8 8-8zm0 48h120c4.42 0 8 3.58 8 8s-3.58 8-8 8h-120c-4.42 0-8-3.58-8-8s3.58-8 8-8zm416 88h-416c-4.42 0-8-3.58-8-8s3.58-8 8-8h416c4.42 0 8 3.58 8 8s-3.58 8-8 8z"/></g></svg>