<svg id="Layer_1" enable-background="new 0 0 512 512" height="512" viewBox="0 0 512 512" width="512" xmlns="http://www.w3.org/2000/svg"><g><circle cx="56" cy="336" r="8"/><path d="m221.575 299.053c-2.602-4.067-8.549-4.067-11.151 0-6.881 10.754-10.097 22.148-10.4 34.923-.026 1.114.886 2.024 2 2.024h27.951c1.114 0 2.027-.911 2-2.024-.303-12.775-3.518-24.17-10.4-34.923z"/><path d="m480 200h-448c-17.645 0-32 14.355-32 32v208c0 17.645 14.355 32 32 32h448c17.645 0 32-14.355 32-32v-208c0-17.645-14.355-32-32-32zm-432 48c0-4.418 3.582-8 8-8h400c4.418 0 8 3.582 8 8v39.726c0 4.261-3.215 7.981-7.467 8.257-4.659.302-8.533-3.388-8.533-7.983v-29c0-1.657-1.343-3-3-3h-378c-1.657 0-3 1.343-3 3v28.726c0 4.261-3.215 7.981-7.467 8.257-4.659.302-8.533-3.388-8.533-7.983zm352 80c4.594 0 8.284 3.873 7.983 8.532-.275 4.252-3.996 7.468-8.257 7.468h-37.726c-1.105 0-2 .895-2 2v28c0 1.105.895 2 2 2h37.726c4.261 0 7.982 3.216 8.257 7.468.301 4.659-3.389 8.532-7.983 8.532h-48c-4.418 0-8-3.582-8-8v-96c0-4.418 3.582-8 8-8h47.726c4.261 0 7.982 3.216 8.257 7.468.301 4.659-3.389 8.532-7.983 8.532h-38c-1.105 0-2 .895-2 2v28c0 1.105.895 2 2 2zm-80 48c4.594 0 8.284 3.873 7.983 8.532-.275 4.252-3.996 7.468-8.257 7.468h-47.726c-4.418 0-8-3.582-8-8v-95.726c0-4.261 3.215-7.981 7.467-8.257 4.659-.302 8.533 3.388 8.533 7.983v86c0 1.105.895 2 2 2zm-120-22v29.726c0 4.261-3.215 7.981-7.467 8.257-4.659.302-8.533-3.388-8.533-7.983v-40c0-14.047-.795-32.101 12.949-53.574 8.902-13.911 29.215-13.886 38.102 0 13.605 21.257 12.949 39.476 12.949 53.574v39.726c0 4.261-3.215 7.981-7.467 8.257-4.659.302-8.533-3.388-8.533-7.983v-30c0-1.105-.895-2-2-2h-28c-1.105 0-2 .895-2 2zm-64-26c17.645 0 32 14.355 32 32s-14.355 32-32 32-32-14.355-32-32c0-4.418 3.582-8 8-8s8 3.582 8 8c0 8.822 7.178 16 16 16s16-7.178 16-16-7.178-16-16-16c-17.645 0-32-14.355-32-32s14.355-32 32-32 32 14.355 32 32c0 4.418-3.582 8-8 8s-8-3.582-8-8c0-8.822-7.178-16-16-16s-16 7.178-16 16 7.178 16 16 16zm-104 8c0-13.234 10.767-24 24-24s24 10.766 24 24-10.767 24-24 24-24-10.766-24-24zm432 88c0 4.418-3.582 8-8 8h-400c-4.418 0-8-3.582-8-8v-39.726c0-4.261 3.215-7.981 7.467-8.257 4.659-.302 8.533 3.388 8.533 7.983v29c0 1.657 1.343 3 3 3h378c1.657 0 3-1.343 3-3v-28.726c0-4.261 3.215-7.981 7.467-8.257 4.659-.302 8.533 3.388 8.533 7.983zm-8-64c-13.233 0-24-10.766-24-24s10.767-24 24-24 24 10.766 24 24-10.767 24-24 24z"/><circle cx="456" cy="336" r="8"/><path d="m213.14 93.608c-1.465-2.896-2.646-5.961-3.502-9.157-.557-2.078-3.029-2.936-4.732-1.62l-126.29 97.587c-1.509 1.166-.685 3.583 1.223 3.583h19.277c.664 0 1.309-.22 1.834-.626l111.352-86.043c1.139-.88 1.487-2.44.838-3.724z"/><path d="m433.384 180.417-126.29-97.587c-1.703-1.316-4.175-.458-4.732 1.62-.856 3.196-2.037 6.261-3.502 9.157-.649 1.283-.301 2.843.837 3.723l111.352 86.043c.525.406 1.17.626 1.834.626h19.277c1.908.001 2.733-2.415 1.224-3.582z"/><circle cx="256" cy="72" r="32"/></g></svg>