<?xml version="1.0" encoding="UTF-8" standalone="no"?>
<!DOCTYPE svg PUBLIC "-//W3C//DTD SVG 1.1//EN" "http://www.w3.org/Graphics/SVG/1.1/DTD/svg11.dtd">
<svg width="100%" height="100%" viewBox="0 0 300 70" version="1.1" xmlns="http://www.w3.org/2000/svg" xmlns:xlink="http://www.w3.org/1999/xlink" xml:space="preserve" xmlns:serif="http://www.serif.com/" style="fill-rule:evenodd;clip-rule:evenodd;stroke-linecap:round;stroke-linejoin:round;stroke-miterlimit:1.5;">
    <g transform="matrix(1,0,0,1,-1614,-1572)">
        <g id="btn_cliente" transform="matrix(0.813008,0,0,0.414201,300.992,910.107)">
            <rect x="1615" y="1598" width="369" height="169" style="fill:none;"/>
            <g transform="matrix(0.943319,0,0,1.85158,1307.5,1005.55)">
                <g transform="matrix(1.19858,0,0,1,-3808.5,-1327.81)">
                    <rect x="3457" y="1666" width="282" height="63" style="fill:url(#_Linear1);"/>
                </g>
                <g transform="matrix(1.26055,0,0,1.26055,196.768,-1438.85)">
                    <text x="122px" y="1441px" style="font-family:'CocogoosePro-Italic', 'Cocogoose Pro';font-style:italic;font-size:16.791px;fill:white;">SELE<tspan x="164.871px 175.82px " y="1441px 1441px ">CC</tspan>IONE CLIENTE</text>
                </g>
                <g transform="matrix(0.225871,0,0,0.225871,594.046,307.782)">
                    <g transform="matrix(0.474875,0,0,0.474875,288.541,134.432)">
                        <path d="M312,104L200,104C182.445,104 168,118.445 168,136L168,208C168,256.275 207.725,296 256,296C304.275,296 344,256.275 344,208L344,136C344,118.445 329.555,104 312,104Z" style="fill:rgb(255,167,145);fill-rule:nonzero;"/>
                        <path d="M304,24L240,24C222.445,24 208,38.445 208,56C208,47.223 200.777,40 192,40L176,40C158.445,40 144,54.445 144,72L144,176L168,176L168,136C168,118.445 182.445,104 200,104L312,104C329.555,104 344,118.445 344,136L344,176L368,176L368,88C368,52.891 339.109,24 304,24Z" style="fill:rgb(88,89,91);fill-rule:nonzero;"/>
                        <path d="M304,24L240,24C222.445,24 208,38.445 208,56L208,104L312,104C329.555,104 344,118.445 344,136L344,176L368,176L368,88C368,52.891 339.109,24 304,24Z" style="fill:rgb(79,80,82);fill-rule:nonzero;"/>
                        <path d="M448.648,414.448C443.765,365.62 402.191,327.998 353.12,328L312,328C311.784,328 311.576,327.944 311.36,327.936L311.36,328C307.423,355.411 283.692,375.977 256,375.977C228.308,375.977 204.577,355.411 200.64,328L200.64,327.936C200.424,327.936 200.216,328 200,328L158.88,328C109.809,327.998 68.235,365.62 63.352,414.448L56,488L456,488L448.648,414.448Z" style="fill:rgb(0,79,172);fill-rule:nonzero;"/>
                        <path d="M311.36,327.936L311.36,328L312,328C311.784,328 311.576,327.944 311.36,327.936Z" style="fill:rgb(0,71,155);fill-rule:nonzero;"/>
                        <path d="M448.648,414.448C443.765,365.62 402.191,327.998 353.12,328L337.12,328C386.191,327.998 427.765,365.62 432.648,414.448L440,488L456,488L448.648,414.448Z" style="fill:rgb(0,71,155);fill-rule:nonzero;"/>
                        <path d="M296,286.224C270.948,299.248 241.052,299.248 216,286.224L216,312C215.973,320.517 209.15,327.595 200.64,327.936L200.64,328C204.577,355.411 228.308,375.977 256,375.977C283.692,375.977 307.423,355.411 311.36,328L311.36,327.936C302.85,327.595 296.027,320.517 296,312L296,286.224Z" style="fill:rgb(255,167,145);fill-rule:nonzero;"/>
                        <path d="M296,302.224L296,286.224C270.948,299.248 241.052,299.248 216,286.224L216,302.224C241.052,315.248 270.948,315.248 296,302.224Z" style="fill:rgb(255,148,120);fill-rule:nonzero;"/>
                        <path d="M360,456L360,488L456,488L452.8,456L360,456Z" style="fill:rgb(216,0,39);fill-rule:nonzero;"/>
                        <path d="M452.8,456L436.8,456L440,488L456,488L452.8,456Z" style="fill:rgb(194,0,35);fill-rule:nonzero;"/>
                        <path d="M152,456L152,488L56,488L59.2,456L152,456Z" style="fill:rgb(216,0,39);fill-rule:nonzero;"/>
                        <path d="M360,168L344,168L344,208C343.989,213.368 343.485,218.724 342.496,224L360,224C368.777,224 376,216.777 376,208L376,184C376,175.223 368.777,168 360,168Z" style="fill:rgb(255,148,120);fill-rule:nonzero;"/>
                        <path d="M152,168L168,168L168,208C168.011,213.368 168.515,218.724 169.504,224L152,224C143.223,224 136,216.777 136,208L136,184C136,175.223 143.223,168 152,168Z" style="fill:rgb(255,148,120);fill-rule:nonzero;"/>
                        <path d="M224,144C219.611,144 216,147.611 216,152L216,160C216,164.389 219.611,168 224,168C228.389,168 232,164.389 232,160L232,152C232,147.611 228.389,144 224,144Z" style="fill:rgb(88,89,91);fill-rule:nonzero;"/>
                        <path d="M288,144C283.611,144 280,147.611 280,152L280,160C280,164.389 283.611,168 288,168C292.389,168 296,164.389 296,160L296,152C296,147.611 292.389,144 288,144Z" style="fill:rgb(88,89,91);fill-rule:nonzero;"/>
                        <path d="M360,416C364.389,416 368,419.611 368,424L368,488L352,488L352,424C352,419.611 355.611,416 360,416Z" style="fill:rgb(0,63,138);fill-rule:nonzero;"/>
                        <path d="M152,416C156.389,416 160,419.611 160,424L160,488L144,488L144,424C144,419.611 147.611,416 152,416Z" style="fill:rgb(0,63,138);fill-rule:nonzero;"/>
                    </g>
                    <g transform="matrix(0.474875,0,0,0.474875,-19.6764,134.432)">
                        <path d="M312,104L200,104C182.445,104 168,118.445 168,136L168,208C168,256.275 207.725,296 256,296C304.275,296 344,256.275 344,208L344,136C344,118.445 329.555,104 312,104Z" style="fill:rgb(255,167,145);fill-rule:nonzero;"/>
                        <path d="M304,24L240,24C222.445,24 208,38.445 208,56C208,47.223 200.777,40 192,40L176,40C158.445,40 144,54.445 144,72L144,176L168,176L168,136C168,118.445 182.445,104 200,104L312,104C329.555,104 344,118.445 344,136L344,176L368,176L368,88C368,52.891 339.109,24 304,24Z" style="fill:rgb(88,89,91);fill-rule:nonzero;"/>
                        <path d="M304,24L240,24C222.445,24 208,38.445 208,56L208,104L312,104C329.555,104 344,118.445 344,136L344,176L368,176L368,88C368,52.891 339.109,24 304,24Z" style="fill:rgb(79,80,82);fill-rule:nonzero;"/>
                        <path d="M448.648,414.448C443.765,365.62 402.191,327.998 353.12,328L312,328C311.784,328 311.576,327.944 311.36,327.936L311.36,328C307.423,355.411 283.692,375.977 256,375.977C228.308,375.977 204.577,355.411 200.64,328L200.64,327.936C200.424,327.936 200.216,328 200,328L158.88,328C109.809,327.998 68.235,365.62 63.352,414.448L56,488L456,488L448.648,414.448Z" style="fill:rgb(0,79,172);fill-rule:nonzero;"/>
                        <path d="M311.36,327.936L311.36,328L312,328C311.784,328 311.576,327.944 311.36,327.936Z" style="fill:rgb(0,71,155);fill-rule:nonzero;"/>
                        <path d="M448.648,414.448C443.765,365.62 402.191,327.998 353.12,328L337.12,328C386.191,327.998 427.765,365.62 432.648,414.448L440,488L456,488L448.648,414.448Z" style="fill:rgb(0,71,155);fill-rule:nonzero;"/>
                        <path d="M296,286.224C270.948,299.248 241.052,299.248 216,286.224L216,312C215.973,320.517 209.15,327.595 200.64,327.936L200.64,328C204.577,355.411 228.308,375.977 256,375.977C283.692,375.977 307.423,355.411 311.36,328L311.36,327.936C302.85,327.595 296.027,320.517 296,312L296,286.224Z" style="fill:rgb(255,167,145);fill-rule:nonzero;"/>
                        <path d="M296,302.224L296,286.224C270.948,299.248 241.052,299.248 216,286.224L216,302.224C241.052,315.248 270.948,315.248 296,302.224Z" style="fill:rgb(255,148,120);fill-rule:nonzero;"/>
                        <path d="M360,456L360,488L456,488L452.8,456L360,456Z" style="fill:rgb(216,0,39);fill-rule:nonzero;"/>
                        <path d="M452.8,456L436.8,456L440,488L456,488L452.8,456Z" style="fill:rgb(194,0,35);fill-rule:nonzero;"/>
                        <path d="M152,456L152,488L56,488L59.2,456L152,456Z" style="fill:rgb(216,0,39);fill-rule:nonzero;"/>
                        <path d="M360,168L344,168L344,208C343.989,213.368 343.485,218.724 342.496,224L360,224C368.777,224 376,216.777 376,208L376,184C376,175.223 368.777,168 360,168Z" style="fill:rgb(255,148,120);fill-rule:nonzero;"/>
                        <path d="M152,168L168,168L168,208C168.011,213.368 168.515,218.724 169.504,224L152,224C143.223,224 136,216.777 136,208L136,184C136,175.223 143.223,168 152,168Z" style="fill:rgb(255,148,120);fill-rule:nonzero;"/>
                        <path d="M224,144C219.611,144 216,147.611 216,152L216,160C216,164.389 219.611,168 224,168C228.389,168 232,164.389 232,160L232,152C232,147.611 228.389,144 224,144Z" style="fill:rgb(88,89,91);fill-rule:nonzero;"/>
                        <path d="M288,144C283.611,144 280,147.611 280,152L280,160C280,164.389 283.611,168 288,168C292.389,168 296,164.389 296,160L296,152C296,147.611 292.389,144 288,144Z" style="fill:rgb(88,89,91);fill-rule:nonzero;"/>
                        <path d="M360,416C364.389,416 368,419.611 368,424L368,488L352,488L352,424C352,419.611 355.611,416 360,416Z" style="fill:rgb(0,63,138);fill-rule:nonzero;"/>
                        <path d="M152,416C156.389,416 160,419.611 160,424L160,488L144,488L144,424C144,419.611 147.611,416 152,416Z" style="fill:rgb(0,63,138);fill-rule:nonzero;"/>
                    </g>
                    <g transform="matrix(0.808926,0,0,0.808926,48.9149,48.9149)">
                        <path d="M312,104L200,104C182.445,104 168,118.445 168,136L168,208C168,256.275 207.725,296 256,296C304.275,296 344,256.275 344,208L344,136C344,118.445 329.555,104 312,104Z" style="fill:rgb(255,167,145);fill-rule:nonzero;"/>
                        <path d="M304,24L240,24C222.445,24 208,38.445 208,56C208,47.223 200.777,40 192,40L176,40C158.445,40 144,54.445 144,72L144,176L168,176L168,136C168,118.445 182.445,104 200,104L312,104C329.555,104 344,118.445 344,136L344,176L368,176L368,88C368,52.891 339.109,24 304,24Z" style="fill:rgb(88,89,91);fill-rule:nonzero;"/>
                        <path d="M304,24L240,24C222.445,24 208,38.445 208,56L208,104L312,104C329.555,104 344,118.445 344,136L344,176L368,176L368,88C368,52.891 339.109,24 304,24Z" style="fill:rgb(79,80,82);fill-rule:nonzero;"/>
                        <path d="M448.648,414.448C443.765,365.62 402.191,327.998 353.12,328L312,328C311.784,328 311.576,327.944 311.36,327.936L311.36,328C307.423,355.411 283.692,375.977 256,375.977C228.308,375.977 204.577,355.411 200.64,328L200.64,327.936C200.424,327.936 200.216,328 200,328L158.88,328C109.809,327.998 68.235,365.62 63.352,414.448L56,488L456,488L448.648,414.448Z" style="fill:rgb(0,79,172);fill-rule:nonzero;"/>
                        <path d="M311.36,327.936L311.36,328L312,328C311.784,328 311.576,327.944 311.36,327.936Z" style="fill:rgb(0,71,155);fill-rule:nonzero;"/>
                        <path d="M448.648,414.448C443.765,365.62 402.191,327.998 353.12,328L337.12,328C386.191,327.998 427.765,365.62 432.648,414.448L440,488L456,488L448.648,414.448Z" style="fill:rgb(0,71,155);fill-rule:nonzero;"/>
                        <path d="M296,286.224C270.948,299.248 241.052,299.248 216,286.224L216,312C215.973,320.517 209.15,327.595 200.64,327.936L200.64,328C204.577,355.411 228.308,375.977 256,375.977C283.692,375.977 307.423,355.411 311.36,328L311.36,327.936C302.85,327.595 296.027,320.517 296,312L296,286.224Z" style="fill:rgb(255,167,145);fill-rule:nonzero;"/>
                        <path d="M296,302.224L296,286.224C270.948,299.248 241.052,299.248 216,286.224L216,302.224C241.052,315.248 270.948,315.248 296,302.224Z" style="fill:rgb(255,148,120);fill-rule:nonzero;"/>
                        <path d="M360,456L360,488L456,488L452.8,456L360,456Z" style="fill:rgb(216,0,39);fill-rule:nonzero;"/>
                        <path d="M452.8,456L436.8,456L440,488L456,488L452.8,456Z" style="fill:rgb(194,0,35);fill-rule:nonzero;"/>
                        <path d="M152,456L152,488L56,488L59.2,456L152,456Z" style="fill:rgb(216,0,39);fill-rule:nonzero;"/>
                        <path d="M360,168L344,168L344,208C343.989,213.368 343.485,218.724 342.496,224L360,224C368.777,224 376,216.777 376,208L376,184C376,175.223 368.777,168 360,168Z" style="fill:rgb(255,148,120);fill-rule:nonzero;"/>
                        <path d="M152,168L168,168L168,208C168.011,213.368 168.515,218.724 169.504,224L152,224C143.223,224 136,216.777 136,208L136,184C136,175.223 143.223,168 152,168Z" style="fill:rgb(255,148,120);fill-rule:nonzero;"/>
                        <path d="M224,144C219.611,144 216,147.611 216,152L216,160C216,164.389 219.611,168 224,168C228.389,168 232,164.389 232,160L232,152C232,147.611 228.389,144 224,144Z" style="fill:rgb(88,89,91);fill-rule:nonzero;"/>
                        <path d="M288,144C283.611,144 280,147.611 280,152L280,160C280,164.389 283.611,168 288,168C292.389,168 296,164.389 296,160L296,152C296,147.611 292.389,144 288,144Z" style="fill:rgb(88,89,91);fill-rule:nonzero;"/>
                        <path d="M360,416C364.389,416 368,419.611 368,424L368,488L352,488L352,424C352,419.611 355.611,416 360,416Z" style="fill:rgb(0,63,138);fill-rule:nonzero;"/>
                        <path d="M152,416C156.389,416 160,419.611 160,424L160,488L144,488L144,424C144,419.611 147.611,416 152,416Z" style="fill:rgb(0,63,138);fill-rule:nonzero;"/>
                    </g>
                    <path d="M230,235C245.728,247.982 264.041,247.31 284,236" style="fill:none;stroke:rgb(88,89,91);stroke-width:4.5px;"/>
                    <g transform="matrix(0.652674,0,0,0.5,242.371,124.708)">
                        <path d="M230,235C245.728,247.982 264.041,247.31 284,236" style="fill:none;stroke:rgb(88,89,91);stroke-width:5.16px;"/>
                    </g>
                    <g transform="matrix(0.652674,0,0,0.5,-66.716,124.708)">
                        <path d="M230,235C245.728,247.982 264.041,247.31 284,236" style="fill:none;stroke:rgb(88,89,91);stroke-width:5.16px;"/>
                    </g>
                    <path d="M256,175L249.975,205.126L256,211" style="fill:none;stroke:rgb(254,128,95);stroke-width:0.9px;"/>
                    <g transform="matrix(0.5,0,0,0.742857,282.109,79)">
                        <path d="M256,175L249.826,197.558L253,203.269" style="fill:none;stroke:rgb(254,128,95);stroke-width:1.11px;"/>
                    </g>
                    <g transform="matrix(0.5,0,0,0.742857,-26.9451,79)">
                        <path d="M256,175L249.544,198.59L253,204.615" style="fill:none;stroke:rgb(254,128,95);stroke-width:1.11px;"/>
                    </g>
                </g>
            </g>
        </g>
    </g>
    <defs>
        <linearGradient id="_Linear1" x1="0" y1="0" x2="1" y2="0" gradientUnits="userSpaceOnUse" gradientTransform="matrix(92.096,0,0,110.385,3645.56,1683.78)"><stop offset="0" style="stop-color:rgb(63,81,181);stop-opacity:1"/><stop offset="1" style="stop-color:rgb(63,81,181);stop-opacity:0"/></linearGradient>
    </defs>
</svg>
