<?xml version="1.0" encoding="UTF-8" standalone="no"?>
<!DOCTYPE svg PUBLIC "-//W3C//DTD SVG 1.1//EN" "http://www.w3.org/Graphics/SVG/1.1/DTD/svg11.dtd">
<svg width="100%" height="100%" viewBox="0 0 300 70" version="1.1" xmlns="http://www.w3.org/2000/svg" xmlns:xlink="http://www.w3.org/1999/xlink" xml:space="preserve" xmlns:serif="http://www.serif.com/" style="fill-rule:evenodd;clip-rule:evenodd;stroke-linejoin:round;stroke-miterlimit:2;">
    <g transform="matrix(1,0,0,1,-1614,-1659.07)">
        <g id="btn_pago" transform="matrix(0.813008,0,0,0.414201,300.992,997.172)">
            <rect x="1615" y="1598" width="369" height="169" style="fill:none;"/>
            <g transform="matrix(0.943319,0,0,1.85158,840.163,1000.32)">
                <g transform="matrix(1.19858,0,0,1,-3313.08,-1327.81)">
                    <rect x="3457" y="1666" width="282" height="63" style="fill:url(#_Linear1);"/>
                </g>
                <g transform="matrix(1.26055,0,0,1.26055,692.184,-1449.43)">
                    <text x="122px" y="1441px" style="font-family:'CocogoosePro-Italic', 'Cocogoose Pro';font-style:italic;font-size:16.791px;fill:white;">SELE<tspan x="164.871px 175.82px " y="1441px 1441px ">CC</tspan>IONE MEDIO</text>
                    <text x="122px" y="1457.79px" style="font-family:'CocogoosePro-Italic', 'Cocogoose Pro';font-style:italic;font-size:16.791px;fill:white;">DE P<tspan x="161.259px 173.153px 185.764px " y="1457.79px 1457.79px 1457.79px ">AGO</tspan></text>
                </g>
                <g transform="matrix(0.174697,0,0,0.174697,960.543,261.989)">
                    <g transform="matrix(1.15136,0,0,1.15136,865.367,270.88)">
                        <rect x="24" y="232" width="232" height="160" style="fill:rgb(94,172,36);"/>
                        <rect x="240" y="232" width="16" height="160" style="fill:rgb(78,144,30);"/>
                        <path d="M24,344L24,392L72,392C72,365.668 50.332,344 24,344Z" style="fill:rgb(126,214,62);fill-rule:nonzero;"/>
                        <path d="M72,232L24,232L24,280C50.332,280 72,258.332 72,232Z" style="fill:rgb(126,214,62);fill-rule:nonzero;"/>
                        <path d="M192,336L176,336C171.611,336 168,332.389 168,328C168,323.611 164.389,320 160,320C155.611,320 152,323.611 152,328C152,341.166 162.834,352 176,352L176,360C176,364.389 179.611,368 184,368C188.389,368 192,364.389 192,360L192,352C205.166,352 216,341.166 216,328C216,314.834 205.166,304 192,304L176,304C171.611,304 168,300.389 168,296C168,291.611 171.611,288 176,288L192,288C196.389,288 200,291.611 200,296C200,300.389 203.611,304 208,304C212.389,304 216,300.389 216,296C216,282.834 205.166,272 192,272L192,264C192,259.611 188.389,256 184,256C179.611,256 176,259.611 176,264L176,272C162.834,272 152,282.834 152,296C152,309.166 162.834,320 176,320L192,320C196.389,320 200,323.611 200,328C200,332.389 196.389,336 192,336Z" style="fill:rgb(241,242,242);fill-rule:nonzero;"/>
                        <path d="M88,320L112,320C116.389,320 120,316.389 120,312C120,307.611 116.389,304 112,304L88,304C83.611,304 80,307.611 80,312C80,316.389 83.611,320 88,320Z" style="fill:rgb(241,242,242);fill-rule:nonzero;"/>
                    </g>
                    <g transform="matrix(1.15136,0,0,1.15136,829.135,382.299)">
                        <path d="M428,354.48C431.001,357.981 435.389,359.999 440,360C448.777,360 456,352.777 456,344C456,335.223 448.777,328 440,328C435.389,328.001 431.001,330.019 428,333.52C433.308,339.459 433.308,348.541 428,354.48Z" style="fill:rgb(155,201,255);fill-rule:nonzero;"/>
                        <path d="M488,248L488,376C487.974,384.767 480.767,391.974 472,392L256,392L256,232L472,232C480.767,232.026 487.974,239.233 488,248Z" style="fill:rgb(237,28,36);fill-rule:nonzero;"/>
                        <path d="M472,232L456,232C464.767,232.026 471.974,239.233 472,248L472,376C471.974,384.767 464.767,391.974 456,392L472,392C480.767,391.974 487.974,384.767 488,376L488,248C487.974,239.233 480.767,232.026 472,232Z" style="fill:rgb(207,24,32);fill-rule:nonzero;"/>
                        <rect x="256" y="264" width="232" height="32" style="fill:rgb(88,89,91);"/>
                        <rect x="472" y="264" width="16" height="32" style="fill:rgb(77,78,80);"/>
                        <circle cx="440" cy="344" r="16" style="fill:rgb(255,118,19);"/>
                        <path d="M360,336L296,336C291.611,336 288,339.611 288,344C288,348.389 291.611,352 296,352L360,352C364.389,352 368,348.389 368,344C368,339.611 364.389,336 360,336Z" style="fill:rgb(241,242,242);fill-rule:nonzero;"/>
                        <circle cx="416" cy="344" r="16" style="fill:rgb(247,179,29);"/>
                    </g>
                    <g transform="matrix(1.15136,0,0,1.15136,727.204,283.68)">
                        <path d="M280,120L360,120C364.389,120 368,116.389 368,112C368,107.611 364.389,104 360,104L280,104C275.611,104 272,107.611 272,112C272,116.389 275.611,120 280,120Z" style="fill:rgb(255,80,35);fill-rule:nonzero;"/>
                        <circle cx="180.448" cy="184" r="12.448" style="fill:rgb(78,144,30);"/>
                        <circle cx="219.552" cy="184" r="12.448" style="fill:rgb(78,144,30);"/>
                        <path d="M236.904,112L178.064,112L175.936,95.008C175.438,91.024 172.015,88.001 168,88L152,88C147.611,88 144,91.611 144,96C144,100.389 147.611,104 152,104L160.936,104L167.064,152.992C167.562,156.976 170.985,159.999 175,160L226.2,160C229.636,160.001 232.706,157.788 233.792,154.528L244.456,122.528C244.728,121.713 244.866,120.859 244.866,120C244.866,115.626 241.278,112.021 236.904,112Z" style="fill:rgb(94,172,36);fill-rule:nonzero;"/>
                        <path d="M280,152L360,152C364.389,152 368,148.389 368,144C368,139.611 364.389,136 360,136L280,136C275.611,136 272,139.611 272,144C272,148.389 275.611,152 280,152Z" style="fill:rgb(255,80,35);fill-rule:nonzero;"/>
                        <path d="M280,184L360,184C364.389,184 368,180.389 368,176C368,171.611 364.389,168 360,168L280,168C275.611,168 272,171.611 272,176C272,180.389 275.611,184 280,184Z" style="fill:rgb(255,80,35);fill-rule:nonzero;"/>
                    </g>
                    <g transform="matrix(0.465643,0,0,0.465643,1154.62,400.664)">
                        <circle cx="344" cy="320" r="144" style="fill:rgb(238,135,0);"/>
                        <circle cx="344" cy="320" r="104" style="fill:rgb(255,167,51);"/>
                        <path d="M344,216C339.989,216.02 335.982,216.271 332,216.752C384.179,222.786 423.997,267.474 423.997,320C423.997,372.526 384.179,417.214 332,423.248C336.14,423.748 340.305,423.999 344.475,423.999C401.528,423.999 448.475,377.052 448.475,319.999C448.475,262.946 401.528,215.999 344.475,215.999C344.317,215.999 344.158,215.999 344,216Z" style="fill:rgb(255,152,17);fill-rule:nonzero;"/>
                        <circle cx="168" cy="192" r="144" style="fill:rgb(255,152,17);"/>
                        <circle cx="168" cy="192" r="104" style="fill:rgb(255,182,85);"/>
                        <path d="M168,88C163.989,88.02 159.982,88.271 156,88.752C208.179,94.786 247.997,139.474 247.997,192C247.997,244.526 208.179,289.214 156,295.248C160.14,295.748 164.305,295.999 168.475,295.999C225.528,295.999 272.475,249.052 272.475,191.999C272.475,134.946 225.528,87.999 168.475,87.999C168.317,87.999 168.158,87.999 168,88Z" style="fill:rgb(255,167,51);fill-rule:nonzero;"/>
                        <g>
                            <path d="M152,152L184,152C188.389,152 192,155.611 192,160C192,164.389 195.611,168 200,168C204.389,168 208,164.389 208,160C208,146.834 197.166,136 184,136L176,136L176,120C176,115.611 172.389,112 168,112C163.611,112 160,115.611 160,120L160,136L152,136C138.834,136 128,146.834 128,160L128,176C128,189.166 138.834,200 152,200L184,200C188.389,200 192,203.611 192,208L192,224C192,228.389 188.389,232 184,232L152,232C147.611,232 144,228.389 144,224C144,219.611 140.389,216 136,216C131.611,216 128,219.611 128,224C128,237.166 138.834,248 152,248L160,248L160,264C160,268.389 163.611,272 168,272C172.389,272 176,268.389 176,264L176,248L184,248C197.166,248 208,237.166 208,224L208,208C208,194.834 197.166,184 184,184L152,184C147.611,184 144,180.389 144,176L144,160C144,155.611 147.611,152 152,152Z" style="fill:rgb(241,242,242);fill-rule:nonzero;"/>
                            <path d="M360,360L328,360C323.611,360 320,356.389 320,352C320,347.611 316.389,344 312,344C307.611,344 304,347.611 304,352C304,365.166 314.834,376 328,376L336,376L336,392C336,396.389 339.611,400 344,400C348.389,400 352,396.389 352,392L352,376L360,376C373.166,376 384,365.166 384,352L384,336C384,322.834 373.166,312 360,312L328,312C323.611,312 320,308.389 320,304L320,288C320,283.611 323.611,280 328,280L360,280C364.389,280 368,283.611 368,288C368,292.389 371.611,296 376,296C380.389,296 384,292.389 384,288C384,274.834 373.166,264 360,264L352,264L352,248C352,243.611 348.389,240 344,240C339.611,240 336,243.611 336,248L336,264L328,264C314.834,264 304,274.834 304,288L304,304C304,317.166 314.834,328 328,328L360,328C364.389,328 368,331.611 368,336L368,352C368,356.389 364.389,360 360,360Z" style="fill:rgb(241,242,242);fill-rule:nonzero;"/>
                        </g>
                    </g>
                </g>
            </g>
        </g>
    </g>
    <defs>
        <linearGradient id="_Linear1" x1="0" y1="0" x2="1" y2="0" gradientUnits="userSpaceOnUse" gradientTransform="matrix(92.096,0,0,110.385,3645.56,1683.78)"><stop offset="0" style="stop-color:rgb(63,81,181);stop-opacity:1"/><stop offset="1" style="stop-color:rgb(63,81,181);stop-opacity:0"/></linearGradient>
    </defs>
</svg>
