<svg height="512pt" viewBox="0 0 512.05033 512" width="512pt" xmlns="http://www.w3.org/2000/svg"><path d="m59.734375 287.960938c-4.105469 1.480468-8.4375 2.234374-12.800781 2.21875-21.207032 0-38.398438-17.191407-38.398438-38.398438s17.191406-38.402344 38.398438-38.402344c4.363281-.011718 8.695312.738282 12.800781 2.21875" fill="#d4e1f4"/><path d="m503.464844 401.113281c-8.855469 17.578125-21.058594 33.261719-35.921875 46.167969-42.582031 37.542969-107.523438 56.234375-181.675781 56.234375-2.132813 0-4.265626 0-6.402344-.171875-80.636719-1.28125-150.695313-29.78125-188.925782-71.679688-8.429687-9.101562-15.476562-19.394531-20.90625-30.550781-.511718-1.023437-.941406-2.046875-1.367187-3.070312-5.585937-12.457031-8.492187-25.945313-8.53125-39.59375v-166.65625c0-98.5625 77.910156-181.675781 176.46875-183.210938 14.292969-.265625 28.566406 1.226563 42.496094 4.4375 81.566406 18.578125 139.433593 91.105469 139.433593 174.761719v139.09375c-.222656 16.597656 3.929688 32.957031 12.03125 47.445312 11.265626 19.371094 35.242188 35.582032 73.300782 26.792969zm0 0" fill="#d4e1f4"/><path d="m460.800781 446.253906c-42.839843 36.949219-107.351562 55.980469-181.335937 57.089844-80.636719-1.28125-150.695313-29.78125-188.925782-71.679688-8.429687-9.101562-15.476562-19.394531-20.90625-30.550781-.511718-1.023437-.941406-2.046875-1.367187-3.070312v-221.78125c.238281-88.097657 71.820313-159.335938 159.914063-159.148438 10.839843-.027343 21.652343 1.089844 32.257812 3.328125 74.21875 14.929688 127.621094 80.113282 127.660156 155.820313v194.472656s0 54.101563 72.703125 75.519531zm0 0" fill="#e3e7f2"/><path d="m324.265625 224.628906c14.996094-14.996094 39.3125-14.996094 54.308594 0 14.996093 14.996094 14.996093 39.308594 0 54.304688-14.996094 14.996094-39.3125 14.996094-54.308594 0" fill="#d4e1f4"/><path d="m315.734375 236.695312c2.910156-2.03125 6.128906-3.574218 9.53125-4.574218 7.621094-2.230469 15.722656-2.230469 23.347656 0 3.40625 1 6.628907 2.542968 9.539063 4.574218 2.59375 1.800782 4.78125 4.125 6.425781 6.824219 3.140625 5.089844 3.140625 11.515625 0 16.605469-1.644531 2.699219-3.832031 5.023438-6.425781 6.828125-2.910156 2.03125-6.132813 3.574219-9.539063 4.574219-7.625 2.230468-15.726562 2.230468-23.347656 0-3.410156-1.027344-6.628906-2.601563-9.53125-4.660156" fill="#e3e7f2"/><path d="m187.734375 264.582031h51.199219v25.597657c0 14.140624-11.460938 25.601562-25.601563 25.601562-14.136719 0-25.597656-11.460938-25.597656-25.601562zm0 0" fill="#e3e7f2"/><path d="m46.933594 290.179688c4.363281.015624 8.695312-.738282 12.800781-2.21875v70.488281c.039063 13.648437 2.945313 27.136719 8.53125 39.59375.425781 1.023437.855469 2.046875 1.367187 3.070312 5.429688 11.15625 12.476563 21.449219 20.90625 30.550781 38.230469 41.898438 108.289063 70.398438 188.925782 71.679688 2.136718.171875 4.269531.171875 6.402344.171875 5.238281 0 10.425781-.121094 15.574218-.308594-79.105468-2.066406-147.628906-30.277343-185.304687-71.542969-8.429688-9.101562-15.472657-19.394531-20.90625-30.550781-.511719-1.023437-.9375-2.046875-1.363281-3.070312-5.585938-12.457031-8.492188-25.945313-8.535157-39.59375v-70.488281c-4.101562 1.480468-8.433593 2.234374-12.796875 2.21875-21.210937 0-38.402344-17.191407-38.402344-38.398438s17.191407-38.402344 38.402344-38.402344c4.363282-.011718 8.695313.738282 12.796875 2.21875v-23.804687c-.597656-95.433594 72.609375-175.128907 167.75-182.613281-5.574219-.445313-11.1875-.703126-16.878906-.597657-98.558594 1.535157-176.46875 84.648438-176.46875 183.210938v23.804687c-4.105469-1.480468-8.4375-2.230468-12.800781-2.21875-21.207032 0-38.398438 17.195313-38.398438 38.402344s17.191406 38.398438 38.398438 38.398438zm0 0" fill="#fff"/><path d="m502.253906 403.257812c.386719-.734374.855469-1.410156 1.210938-2.144531-2.40625.570313-4.75 1.023438-7.039063 1.367188 1.921875.339843 3.824219.597656 5.828125.777343zm0 0" fill="#fff"/><path d="m236.304688 17.113281c-17.597657.535157-35.023438 3.613281-51.738282 9.140625-16.621094 5.875-32.246094 14.261719-46.328125 24.875-21.757812 16.40625-39.375 37.683594-51.4375 62.121094-12 24.464844-18.332031 51.320312-18.535156 78.566406h-17.066406c.199219-29.894531 7.152343-59.355468 20.335937-86.1875 13.246094-26.800781 32.582032-50.132812 56.464844-68.121094 15.5-11.683593 32.707031-20.910156 51.011719-27.367187 18.417969-6.125 37.632812-9.527344 57.039062-10.09375zm0 0" fill="#fff"/><g fill="#428dff"><path d="m166.929688 30.84375c2.0625.621094 4.269531.578125 6.304687-.128906 2.007813-.828125 3.609375-2.40625 4.464844-4.402344l.46875-1.550781c.121093-.5625.171875-1.136719.152343-1.707031.054688-.542969.027344-1.089844-.074218-1.621094-.109375-.5625-.253906-1.117188-.4375-1.65625-.8125-2.117188-2.433594-3.824219-4.503906-4.746094-1.089844-.414062-2.25-.617188-3.414063-.597656-3.597656-.082032-6.863281 2.101562-8.160156 5.460937-.363281 1.101563-.507813 2.261719-.425781 3.414063.066406 1.109375.347656 2.191406.828124 3.191406 1.015626 1.984375 2.722657 3.53125 4.796876 4.34375zm0 0"/><path d="m46.933594 298.714844c1.441406 0 2.839844-.238282 4.265625-.367188v60.101563c.074219 16.058593 3.742187 31.894531 10.734375 46.351562 30.738281 64.144531 120.730468 107.246094 223.933594 107.246094 109.097656 0 191.1875-39.039063 225.28125-107.117187 1.480468-2.957032 1.117187-6.503907-.929688-9.101563-2.042969-2.597656-5.40625-3.78125-8.628906-3.035156-40.40625 9.386719-58.179688-12.800781-64-22.757813-7.378906-13.171875-11.148438-28.0625-10.921875-43.160156v-139.09375c.003906-50.292969-20.167969-98.488281-56.003907-133.777344-35.832031-35.292968-84.328124-54.730468-134.613281-53.957031l-17.851562 1.210937c-5.914063.753907-11.777344 1.9375-17.664063 2.902344-2.277344.472656-4.257812 1.855469-5.484375 3.832032-1.226562 1.972656-1.589843 4.363281-1.003906 6.613281 1.183594 4.398437 5.574219 7.128906 10.042969 6.246093 5.34375-.851562 10.652344-1.945312 16.011718-2.628906l16.203126-1.109375c45.71875-.703125 89.804687 16.964844 122.382812 49.050781 32.578125 32.082032 50.917969 75.894532 50.914062 121.617188v139.09375c-.226562 18.097656 4.339844 35.9375 13.234376 51.703125 13.265624 22.632813 38.375 35.605469 64.511718 33.339844-35.210937 53.023437-107.433594 83.0625-201.480468 83.0625-95.265626 0-181.019532-40.105469-208.53125-97.527344-5.894532-12.164063-8.992188-25.488281-9.070313-39.003906v-166.632813c.207031-27.25 6.546875-54.101562 18.550781-78.566406 12.058594-24.4375 29.667969-45.710938 51.421875-62.121094 2.074219-1.746094 4.269531-3.339844 6.574219-4.761718 3.78125-2.625 4.828125-7.761719 2.371094-11.65625-1.246094-1.929688-3.214844-3.273438-5.460938-3.730469-2.246094-.460938-4.585937.003906-6.488281 1.289062-2.53125 1.574219-4.949219 3.324219-7.234375 5.238281-23.875 18-43.207031 41.34375-56.441406 68.15625-13.183594 26.820313-20.144532 56.269532-20.359375 86.152344v13.398438c-1.425781-.128906-2.824219-.367188-4.265625-.367188-25.921875 0-46.933594 21.011719-46.933594 46.933594s21.011719 46.933594 46.933594 46.933594zm0-76.800782c1.429687.019532 2.855468.140626 4.265625.359376v59.015624c-1.410157.21875-2.835938.339844-4.265625.359376-16.496094 0-29.867188-13.371094-29.867188-29.867188s13.371094-29.867188 29.867188-29.867188zm0 0"/><path d="m363.996094 272.910156c-11.660156 11.660156-30.566406 11.660156-42.230469 0-3.347656-3.234375-8.667969-3.1875-11.960937.101563-3.292969 3.292969-3.339844 8.617187-.105469 11.964843 13.421875 13.421876 33.609375 17.4375 51.148437 10.171876 17.539063-7.261719 28.972656-24.375 28.972656-43.359376 0-18.984374-11.433593-36.097656-28.972656-43.359374-17.539062-7.265626-37.726562-3.25-51.148437 10.171874-3.234375 3.351563-3.1875 8.671876.105469 11.964844 3.292968 3.289063 8.613281 3.335938 11.960937.101563 2.71875-2.726563 5.941406-4.898438 9.488281-6.398438 11.203125-4.75 24.164063-2.214843 32.753906 6.398438 5.601563 5.601562 8.75 13.203125 8.75 21.125 0 7.925781-3.148437 15.523437-8.75 21.125zm0 0"/><path d="m109.890625 174.84375c-5.523437 2.667969-10.457031 6.421875-14.503906 11.035156-4.128907 4.699219-7.359375 10.117188-9.53125 15.980469-1.652344 4.417969.589843 9.335937 5.007812 10.984375 4.414063 1.648438 9.332031-.59375 10.980469-5.007812 1.441406-3.914063 3.585938-7.527344 6.332031-10.660157 2.53125-2.898437 5.613281-5.257812 9.070313-6.9375 6.785156-3.265625 14.6875-3.265625 21.472656 0 3.453125 1.679688 6.535156 4.035157 9.0625 6.929688 2.75 3.136719 4.898438 6.75 6.339844 10.667969 1.066406 2.855468 3.578125 4.925781 6.582031 5.429687 3.007813.503906 6.058594-.632813 7.996094-2.988281 1.941406-2.351563 2.480469-5.558594 1.414062-8.417969-2.175781-5.867187-5.410156-11.289063-9.542969-15.988281-4.046874-4.613282-8.980468-8.363282-14.503906-11.027344-11.441406-5.464844-24.734375-5.464844-36.175781 0zm0 0"/><path d="m212.796875 207.835938c1.4375-3.914063 3.582031-7.527344 6.332031-10.660157 2.527344-2.898437 5.613282-5.257812 9.070313-6.9375 6.78125-3.265625 14.683593-3.265625 21.46875 0 3.453125 1.679688 6.535156 4.035157 9.0625 6.929688 2.75 3.136719 4.898437 6.75 6.339843 10.667969 1.066407 2.855468 3.578126 4.925781 6.585938 5.429687s6.054688-.632813 7.996094-2.988281c1.9375-2.351563 2.476562-5.558594 1.410156-8.417969-2.175781-5.867187-5.410156-11.289063-9.539062-15.988281-4.046876-4.613282-8.980469-8.363282-14.507813-11.027344-11.449219-5.476562-24.765625-5.476562-36.214844 0-5.527343 2.667969-10.460937 6.421875-14.507812 11.035156-4.125 4.699219-7.355469 10.117188-9.53125 15.980469-1.066407 2.859375-.527344 6.066406 1.410156 8.417969 1.941406 2.355468 4.988281 3.492187 7.996094 2.988281 3.007812-.503906 5.519531-2.574219 6.585937-5.429687zm0 0"/><path d="m110.933594 256.046875c-4.714844 0-8.535156 3.820313-8.535156 8.535156 0 4.710938 3.820312 8.53125 8.535156 8.53125h68.265625v17.066407c0 18.851562 15.28125 34.132812 34.132812 34.132812 18.851563 0 34.132813-15.28125 34.132813-34.132812v-17.066407h8.535156c4.710938 0 8.535156-3.820312 8.535156-8.53125 0-4.714843-3.824218-8.535156-8.535156-8.535156zm119.464844 17.066406v17.066407c0 9.425781-7.640626 17.066406-17.066407 17.066406s-17.066406-7.640625-17.066406-17.066406v-17.066407zm0 0"/></g></svg>